<svg width="46" height="46" viewBox="0 0 46 46" fill="none" xmlns="http://www.w3.org/2000/svg">
<rect width="3.6" height="3.6" transform="matrix(-0.819152 0.573576 0.573576 0.819152 28.7275 14.9563)" fill="white"/>
<rect width="3.6" height="3.6" transform="matrix(-0.819152 0.573576 0.573576 0.819152 26.415 17.269)" fill="white"/>
<rect width="3.6" height="3.6" transform="matrix(-0.819152 0.573576 0.573576 0.819152 24.1025 19.5815)" fill="white"/>
<rect width="3.6" height="3.6" transform="matrix(-0.819152 0.573576 0.573576 0.819152 21.7891 21.894)" fill="white"/>
<rect width="3.6" height="3.6" transform="matrix(-0.819152 0.573576 0.573576 0.819152 19.4766 24.2065)" fill="white"/>
<rect width="3.6" height="3.6" transform="matrix(-0.819152 0.573576 0.573576 0.819152 17.1641 26.5193)" fill="white"/>
<rect width="3.6" height="3.6" transform="matrix(-0.819152 0.573576 0.573576 0.819152 14.8516 28.8315)" fill="white"/>
<rect width="3.6" height="3.6" transform="matrix(-0.0707919 0.961547 0.997491 0.274639 27.833 13.7075)" fill="white"/>
<rect width="3.6" height="3.6" transform="matrix(-0.0707919 0.961547 0.997491 0.274639 28.1709 16.9604)" fill="white"/>
<rect width="3.6" height="3.6" transform="matrix(-0.0707919 0.961547 0.997491 0.274639 28.5098 20.2134)" fill="white"/>
<rect width="3.6" height="3.6" transform="matrix(-0.0707919 0.961547 0.997491 0.274639 28.8477 23.4661)" fill="white"/>
<rect width="3.6" height="3.6" transform="matrix(-0.997491 -0.274639 -0.0707919 0.961547 31.8447 14.2471)" fill="white"/>
<rect width="3.6" height="3.6" transform="matrix(-0.997491 -0.274639 -0.0707919 0.961547 28.5918 13.9084)" fill="white"/>
<rect width="3.6" height="3.6" transform="matrix(-0.997491 -0.274639 -0.0707919 0.961547 25.3389 13.5701)" fill="white"/>
<rect width="3.6" height="3.6" transform="matrix(-0.997491 -0.274639 -0.0707919 0.961547 22.0859 13.2314)" fill="white"/>
</svg>
