<svg width="316" height="52" viewBox="0 0 316 52" fill="none" xmlns="http://www.w3.org/2000/svg">
<path d="M13.8689 47.3808L1.21906 37.6505V12.6793L13.8689 2.94904H297.953L310.603 12.6793V37.6505L297.953 47.3808H13.8689Z" stroke="black" stroke-width="0.393201"/>
<rect y="37.7473" width="5.20023" height="4" fill="white"/>
<rect x="4.08936" y="40.8931" width="5.20023" height="4" fill="white"/>
<rect x="8.1792" y="44.0386" width="5.20023" height="4" fill="white"/>
<rect x="12.2686" y="47.1841" width="5.20023" height="4" fill="white"/>
<rect x="306.71" y="37.7473" width="5.20023" height="4" fill="white"/>
<rect x="302.621" y="40.8931" width="5.20023" height="4" fill="white"/>
<rect x="298.531" y="44.0386" width="5.20023" height="4" fill="white"/>
<rect x="310.8" y="37.7473" width="5.20023" height="4" fill="white"/>
<rect x="294.442" y="47.1841" width="5.20023" height="4" fill="white"/>
<rect x="298.531" y="3.14551" width="5.20023" height="4" fill="white"/>
<rect x="302.621" y="6.29126" width="5.20023" height="4" fill="white"/>
<rect x="306.71" y="9.43677" width="5.20023" height="4" fill="white"/>
<rect x="294.442" width="5.20023" height="4" fill="white"/>
<rect x="310.8" y="12.5825" width="5.20023" height="4" fill="white"/>
<rect x="306.71" y="12.5825" width="5.20023" height="4" fill="white"/>
<rect x="310.8" y="15.728" width="5.20023" height="4" fill="white"/>
<rect x="310.8" y="18.8735" width="5.20023" height="4" fill="white"/>
<rect x="310.8" y="22.0193" width="5.20023" height="4" fill="white"/>
<rect x="310.8" y="25.1648" width="5.20023" height="4" fill="white"/>
<rect x="310.8" y="28.3105" width="5.20023" height="4" fill="white"/>
<rect x="310.8" y="31.4561" width="5.20023" height="4" fill="white"/>
<rect x="310.8" y="34.6016" width="5.20023" height="4" fill="white"/>
<rect x="8.1792" y="3.14551" width="5.20023" height="4" fill="white"/>
<rect x="4.08936" y="6.29126" width="5.20023" height="4" fill="white"/>
<rect y="9.43677" width="5.20023" height="4" fill="white"/>
<rect y="12.5825" width="5.20023" height="4" fill="white"/>
<rect x="12.2686" width="5.20023" height="4" fill="white"/>
<rect x="16.3579" width="5.20023" height="4" fill="white"/>
<rect x="20.4473" width="5.20023" height="4" fill="white"/>
<rect x="24.5366" width="5.20023" height="4" fill="white"/>
<rect x="28.6265" width="5.20023" height="4" fill="white"/>
<rect x="32.7158" width="5.20023" height="4" fill="white"/>
<rect x="36.8052" width="5.20023" height="4" fill="white"/>
<rect x="40.8945" width="5.20023" height="4" fill="white"/>
<rect x="44.9844" width="5.20023" height="4" fill="white"/>
<rect x="49.0737" width="5.20023" height="4" fill="white"/>
<rect x="53.1631" width="5.20023" height="4" fill="white"/>
<rect x="57.2524" width="5.20023" height="4" fill="white"/>
<rect x="61.3423" width="5.20023" height="4" fill="white"/>
<rect x="65.4316" width="5.20023" height="4" fill="white"/>
<rect x="69.521" width="5.20023" height="4" fill="white"/>
<rect x="73.6104" width="5.20023" height="4" fill="white"/>
<rect x="77.7002" width="5.20023" height="4" fill="white"/>
<rect x="81.7896" width="5.20023" height="4" fill="white"/>
<rect x="85.8789" width="5.20023" height="4" fill="white"/>
<rect x="89.9683" width="5.20023" height="4" fill="white"/>
<rect x="94.0576" width="5.20023" height="4" fill="white"/>
<rect x="98.1475" width="5.20023" height="4" fill="white"/>
<rect x="102.237" width="5.20023" height="4" fill="white"/>
<rect x="106.326" width="5.20023" height="4" fill="white"/>
<rect x="110.416" width="5.20023" height="4" fill="white"/>
<rect x="114.505" width="5.20023" height="4" fill="white"/>
<rect x="118.595" width="5.20023" height="4" fill="white"/>
<rect x="122.684" width="5.20023" height="4" fill="white"/>
<rect x="126.773" width="5.20023" height="4" fill="white"/>
<rect x="130.863" width="5.20023" height="4" fill="white"/>
<rect x="134.953" width="5.20023" height="4" fill="white"/>
<rect x="139.042" width="5.20023" height="4" fill="white"/>
<rect x="143.131" width="5.20023" height="4" fill="white"/>
<rect x="147.221" width="5.20023" height="4" fill="white"/>
<rect x="151.311" width="5.20023" height="4" fill="white"/>
<rect x="155.4" width="5.20023" height="4" fill="white"/>
<rect x="159.489" width="5.20023" height="4" fill="white"/>
<rect x="163.579" width="5.20023" height="4" fill="white"/>
<rect x="167.668" width="5.20023" height="4" fill="white"/>
<rect x="171.758" width="5.20023" height="4" fill="white"/>
<rect x="175.847" width="5.20023" height="4" fill="white"/>
<rect x="179.937" width="5.20023" height="4" fill="white"/>
<rect x="184.026" width="5.20023" height="4" fill="white"/>
<rect x="188.116" width="5.20023" height="4" fill="white"/>
<rect x="192.205" width="5.20023" height="4" fill="white"/>
<rect x="196.294" width="5.20023" height="4" fill="white"/>
<rect x="200.384" width="5.20023" height="4" fill="white"/>
<rect x="204.474" width="5.20023" height="4" fill="white"/>
<rect x="208.563" width="5.20023" height="4" fill="white"/>
<rect x="212.652" width="5.20023" height="4" fill="white"/>
<rect x="216.742" width="5.20023" height="4" fill="white"/>
<rect x="220.832" width="5.20023" height="4" fill="white"/>
<rect x="224.921" width="5.20023" height="4" fill="white"/>
<rect x="229.01" width="5.20023" height="4" fill="white"/>
<rect x="233.1" width="5.20023" height="4" fill="white"/>
<rect x="237.189" width="5.20023" height="4" fill="white"/>
<rect x="241.279" width="5.20023" height="4" fill="white"/>
<rect x="245.368" width="5.20023" height="4" fill="white"/>
<rect x="249.458" width="5.20023" height="4" fill="white"/>
<rect x="253.547" width="5.20023" height="4" fill="white"/>
<rect x="257.637" width="5.20023" height="4" fill="white"/>
<rect x="261.726" width="5.20023" height="4" fill="white"/>
<rect x="265.815" width="5.20023" height="4" fill="white"/>
<rect x="269.905" width="5.20023" height="4" fill="white"/>
<rect x="273.995" width="5.20023" height="4" fill="white"/>
<rect x="278.084" width="5.20023" height="4" fill="white"/>
<rect x="282.174" width="5.20023" height="4" fill="white"/>
<rect x="286.263" width="5.20023" height="4" fill="white"/>
<rect x="290.353" width="5.20023" height="4" fill="white"/>
<rect y="15.728" width="5.20023" height="4" fill="white"/>
<rect y="18.8735" width="5.20023" height="4" fill="white"/>
<rect y="22.0193" width="5.20023" height="4" fill="white"/>
<rect y="25.1648" width="5.20023" height="4" fill="white"/>
<rect y="28.3105" width="5.20023" height="4" fill="white"/>
<rect y="31.4561" width="5.20023" height="4" fill="white"/>
<rect y="34.6018" width="5.20023" height="4" fill="white"/>
<rect x="16.3579" y="47.1841" width="5.20023" height="4" fill="white"/>
<rect x="20.4473" y="47.1841" width="5.20023" height="4" fill="white"/>
<rect x="24.5366" y="47.1841" width="5.20023" height="4" fill="white"/>
<rect x="28.6265" y="47.1841" width="5.20023" height="4" fill="white"/>
<rect x="32.7158" y="47.1841" width="5.20023" height="4" fill="white"/>
<rect x="36.8052" y="47.1841" width="5.20023" height="4" fill="white"/>
<rect x="40.8945" y="47.1841" width="5.20023" height="4" fill="white"/>
<rect x="44.9844" y="47.1841" width="5.20023" height="4" fill="white"/>
<rect x="49.0737" y="47.1841" width="5.20023" height="4" fill="white"/>
<rect x="53.1631" y="47.1841" width="5.20023" height="4" fill="white"/>
<rect x="57.2524" y="47.1841" width="5.20023" height="4" fill="white"/>
<rect x="61.3423" y="47.1841" width="5.20023" height="4" fill="white"/>
<rect x="65.4316" y="47.1841" width="5.20023" height="4" fill="white"/>
<rect x="69.521" y="47.1841" width="5.20023" height="4" fill="white"/>
<rect x="73.6104" y="47.1841" width="5.20023" height="4" fill="white"/>
<rect x="77.7002" y="47.1841" width="5.20023" height="4" fill="white"/>
<rect x="81.7896" y="47.1841" width="5.20023" height="4" fill="white"/>
<rect x="85.8789" y="47.1841" width="5.20023" height="4" fill="white"/>
<rect x="89.9683" y="47.1841" width="5.20023" height="4" fill="white"/>
<rect x="94.0576" y="47.1841" width="5.20023" height="4" fill="white"/>
<rect x="98.1475" y="47.1841" width="5.20023" height="4" fill="white"/>
<rect x="102.237" y="47.1841" width="5.20023" height="4" fill="white"/>
<rect x="106.326" y="47.1841" width="5.20023" height="4" fill="white"/>
<rect x="110.416" y="47.1841" width="5.20023" height="4" fill="white"/>
<rect x="114.505" y="47.1841" width="5.20023" height="4" fill="white"/>
<rect x="118.595" y="47.1841" width="5.20023" height="4" fill="white"/>
<rect x="122.684" y="47.1841" width="5.20023" height="4" fill="white"/>
<rect x="126.773" y="47.1841" width="5.20023" height="4" fill="white"/>
<rect x="130.863" y="47.1841" width="5.20023" height="4" fill="white"/>
<rect x="134.953" y="47.1841" width="5.20023" height="4" fill="white"/>
<rect x="139.042" y="47.1841" width="5.20023" height="4" fill="white"/>
<rect x="143.131" y="47.1841" width="5.20023" height="4" fill="white"/>
<rect x="147.221" y="47.1841" width="5.20023" height="4" fill="white"/>
<rect x="151.311" y="47.1841" width="5.20023" height="4" fill="white"/>
<rect x="155.4" y="47.1841" width="5.20023" height="4" fill="white"/>
<rect x="159.489" y="47.1841" width="5.20023" height="4" fill="white"/>
<rect x="163.579" y="47.1841" width="5.20023" height="4" fill="white"/>
<rect x="167.668" y="47.1841" width="5.20023" height="4" fill="white"/>
<rect x="171.758" y="47.1841" width="5.20023" height="4" fill="white"/>
<rect x="175.847" y="47.1841" width="5.20023" height="4" fill="white"/>
<rect x="179.937" y="47.1841" width="5.20023" height="4" fill="white"/>
<rect x="184.026" y="47.1841" width="5.20023" height="4" fill="white"/>
<rect x="188.116" y="47.1841" width="5.20023" height="4" fill="white"/>
<rect x="192.205" y="47.1841" width="5.20023" height="4" fill="white"/>
<rect x="196.294" y="47.1841" width="5.20023" height="4" fill="white"/>
<rect x="200.384" y="47.1841" width="5.20023" height="4" fill="white"/>
<rect x="204.474" y="47.1841" width="5.20023" height="4" fill="white"/>
<rect x="208.563" y="47.1841" width="5.20023" height="4" fill="white"/>
<rect x="212.652" y="47.1841" width="5.20023" height="4" fill="white"/>
<rect x="216.742" y="47.1841" width="5.20023" height="4" fill="white"/>
<rect x="220.832" y="47.1841" width="5.20023" height="4" fill="white"/>
<rect x="224.921" y="47.1841" width="5.20023" height="4" fill="white"/>
<rect x="229.01" y="47.1841" width="5.20023" height="4" fill="white"/>
<rect x="233.1" y="47.1841" width="5.20023" height="4" fill="white"/>
<rect x="237.189" y="47.1841" width="5.20023" height="4" fill="white"/>
<rect x="241.279" y="47.1841" width="5.20023" height="4" fill="white"/>
<rect x="245.368" y="47.1841" width="5.20023" height="4" fill="white"/>
<rect x="249.458" y="47.1841" width="5.20023" height="4" fill="white"/>
<rect x="253.547" y="47.1841" width="5.20023" height="4" fill="white"/>
<rect x="257.637" y="47.1841" width="5.20023" height="4" fill="white"/>
<rect x="261.726" y="47.1841" width="5.20023" height="4" fill="white"/>
<rect x="265.815" y="47.1841" width="5.20023" height="4" fill="white"/>
<rect x="269.905" y="47.1841" width="5.20023" height="4" fill="white"/>
<rect x="273.995" y="47.1841" width="5.20023" height="4" fill="white"/>
<rect x="278.084" y="47.1841" width="5.20023" height="4" fill="white"/>
<rect x="282.174" y="47.1841" width="5.20023" height="4" fill="white"/>
<rect x="286.263" y="47.1841" width="5.20023" height="4" fill="white"/>
<rect x="290.353" y="47.1841" width="5.20023" height="4" fill="white"/>
</svg>
