<svg xmlns="http://www.w3.org/2000/svg" width="120" height="40" viewBox="0 0 120 40" fill="none">
  <rect x="4.08301" y="29.7088" width="5.192" height="4" fill="white"/>
  <rect x="8.16602" y="32.8544" width="5.192" height="4" fill="white"/>
  <rect x="12.249" y="36" width="5.192" height="4" fill="white"/>
  <rect x="110.116" y="29.7088" width="5.192" height="4" fill="white"/>
  <rect x="105.655" y="32.8544" width="5.192" height="4" fill="white"/>
  <rect x="106.059" y="3.14563" width="5.192" height="4" fill="white"/>
  <rect x="109.655" y="6.2912" width="5.192" height="4" fill="white"/>
  <rect x="114.308" y="9.43683" width="5.192" height="4" fill="white"/>
  <rect x="114.308" y="12.5825" width="5.192" height="4" fill="white"/>
  <rect x="114.308" y="15.728" width="5.192" height="4" fill="white"/>
  <rect x="114.308" y="18.8737" width="5.192" height="4" fill="white"/>
  <rect x="114.308" y="22.0193" width="5.192" height="4" fill="white"/>
  <rect x="114.308" y="25.1649" width="5.192" height="4" fill="white"/>
  <rect x="114.308" y="28.3105" width="5.192" height="4" fill="white"/>
  <rect x="8.16602" y="3.14561" width="5.192" height="4" fill="white"/>
  <rect x="4.08301" y="6.29121" width="5.192" height="4" fill="white"/>
  <rect y="9.43683" width="5.192" height="4" fill="white"/>
  <rect y="12.5824" width="5.192" height="4" fill="white"/>
  <rect x="12.249" width="5.192" height="4" fill="white"/>
  <rect x="16.332" width="5.192" height="4" fill="white"/>
  <rect x="20.415" width="5.192" height="4" fill="white"/>
  <rect x="24.498" width="5.192" height="4" fill="white"/>
  <rect x="28.5811" width="5.192" height="4" fill="white"/>
  <rect x="32.6641" width="5.192" height="4" fill="white"/>
  <rect x="36.7471" width="5.192" height="4" fill="white"/>
  <rect x="40.8301" width="5.192" height="4" fill="white"/>
  <rect x="44.9131" width="5.192" height="4" fill="white"/>
  <rect x="48.9961" width="5.192" height="4" fill="white"/>
  <rect x="53.0791" width="5.192" height="4" fill="white"/>
  <rect x="57.1621" width="5.192" height="4" fill="white"/>
  <rect x="61.2451" width="5.192" height="4" fill="white"/>
  <rect x="65.3281" width="5.192" height="4" fill="white"/>
  <rect x="69.4111" width="5.192" height="4" fill="white"/>
  <rect x="73.4941" width="5.192" height="4" fill="white"/>
  <rect x="77.5771" width="5.192" height="4" fill="white"/>
  <rect x="81.6602" width="5.192" height="4" fill="white"/>
  <rect x="85.7432" width="5.192" height="4" fill="white"/>
  <rect x="89.8262" width="5.192" height="4" fill="white"/>
  <rect x="93.9092" width="5.192" height="4" fill="white"/>
  <rect x="97.9922" width="5.192" height="4" fill="white"/>
  <rect x="101.842" width="5.192" height="4" fill="white"/>
  <rect y="15.728" width="5.192" height="4" fill="white"/>
  <rect y="18.8737" width="5.192" height="4" fill="white"/>
  <rect y="22.0193" width="5.192" height="4" fill="white"/>
  <rect y="25.1649" width="5.192" height="4" fill="white"/>
  <rect y="28.3105" width="5.192" height="4" fill="white"/>
  <rect x="16.332" y="36" width="5.192" height="4" fill="white"/>
  <rect x="20.415" y="36" width="5.192" height="4" fill="white"/>
  <rect x="24.498" y="36" width="5.192" height="4" fill="white"/>
  <rect x="28.5811" y="36" width="5.192" height="4" fill="white"/>
  <rect x="32.6641" y="36" width="5.192" height="4" fill="white"/>
  <rect x="36.7471" y="36" width="5.192" height="4" fill="white"/>
  <rect x="40.8301" y="36" width="5.192" height="4" fill="white"/>
  <rect x="44.9131" y="36" width="5.192" height="4" fill="white"/>
  <rect x="48.9961" y="36" width="5.192" height="4" fill="white"/>
  <rect x="53.0791" y="36" width="5.192" height="4" fill="white"/>
  <rect x="57.1621" y="36" width="5.192" height="4" fill="white"/>
  <rect x="61.2451" y="36" width="5.192" height="4" fill="white"/>
  <rect x="65.3281" y="36" width="5.192" height="4" fill="white"/>
  <rect x="69.4111" y="36" width="5.192" height="4" fill="white"/>
  <rect x="73.4941" y="36" width="5.192" height="4" fill="white"/>
  <rect x="77.5771" y="36" width="5.192" height="4" fill="white"/>
  <rect x="81.6602" y="36" width="5.192" height="4" fill="white"/>
  <rect x="85.7432" y="36" width="5.192" height="4" fill="white"/>
  <rect x="89.8262" y="36" width="5.192" height="4" fill="white"/>
  <rect x="93.9092" y="36" width="5.192" height="4" fill="white"/>
  <rect x="97.9922" y="36" width="5.192" height="4" fill="white"/>
  <rect x="101.842" y="36" width="5.192" height="4" fill="white"/>
</svg>