<svg xmlns="http://www.w3.org/2000/svg" width="250" height="54" viewBox="0 0 250 54" fill="none">
  <g filter="url(#filter0_iii_235_9554)">
    <path d="M3.5 17.1972V23.2817V29.3662V36.1268H9.05882V43.5634H15.4118V51H98.7941H234.588V43.5634H240.941V36.1268H246.5V29.3662V23.2817V17.1972H240.941V9.76056H234.588V3H98.7941H15.4118V9.76056H9.05882V17.1972H3.5Z" fill="#17FFD5"/>
  </g>
  <path d="M3.5 15.6972H2V17.1972V23.2817V29.3662V36.1268V37.6268H3.5H7.55882V43.5634V45.0634H9.05882H13.9118V51V52.5H15.4118H98.7941H234.588H236.088V51V45.0634H240.941H242.441V43.5634V37.6268H246.5H248V36.1268V29.3662V23.2817V17.1972V15.6972H246.5H242.441V9.76056V8.26056H240.941H236.088V3V1.5H234.588H98.7941H15.4118H13.9118V3V8.26056H9.05882H7.55882V9.76056V15.6972H3.5Z" stroke="white" stroke-width="3"/>
  <defs>
    <filter id="filter0_iii_235_9554" x="0.5" y="0" width="249" height="54" filterUnits="userSpaceOnUse" color-interpolation-filters="sRGB">
      <feFlood flood-opacity="0" result="BackgroundImageFix"/>
      <feBlend mode="normal" in="SourceGraphic" in2="BackgroundImageFix" result="shape"/>
      <feColorMatrix in="SourceAlpha" type="matrix" values="0 0 0 0 0 0 0 0 0 0 0 0 0 0 0 0 0 0 127 0" result="hardAlpha"/>
      <feOffset dx="3" dy="8"/>
      <feComposite in2="hardAlpha" operator="arithmetic" k2="-1" k3="1"/>
      <feColorMatrix type="matrix" values="0 0 0 0 1 0 0 0 0 1 0 0 0 0 1 0 0 0 1 0"/>
      <feBlend mode="normal" in2="shape" result="effect1_innerShadow_235_9554"/>
      <feColorMatrix in="SourceAlpha" type="matrix" values="0 0 0 0 0 0 0 0 0 0 0 0 0 0 0 0 0 0 127 0" result="hardAlpha"/>
      <feOffset dy="5"/>
      <feComposite in2="hardAlpha" operator="arithmetic" k2="-1" k3="1"/>
      <feColorMatrix type="matrix" values="0 0 0 0 0.705882 0 0 0 0 1 0 0 0 0 0.858824 0 0 0 1 0"/>
      <feBlend mode="normal" in2="effect1_innerShadow_235_9554" result="effect2_innerShadow_235_9554"/>
      <feColorMatrix in="SourceAlpha" type="matrix" values="0 0 0 0 0 0 0 0 0 0 0 0 0 0 0 0 0 0 127 0" result="hardAlpha"/>
      <feOffset dx="-3" dy="-9"/>
      <feComposite in2="hardAlpha" operator="arithmetic" k2="-1" k3="1"/>
      <feColorMatrix type="matrix" values="0 0 0 0 0 0 0 0 0 0.854167 0 0 0 0 0.751667 0 0 0 1 0"/>
      <feBlend mode="normal" in2="effect2_innerShadow_235_9554" result="effect3_innerShadow_235_9554"/>
    </filter>
  </defs>
</svg>