<svg xmlns="http://www.w3.org/2000/svg" width="240" height="54" viewBox="0 0 240 54" fill="none">
  <g filter="url(#filter0_iii_235_9560)">
    <path d="M3.02148 17.1972V23.2817V29.3662V36.1268H8.37345V43.5634H14.49V51H94.7695H225.51V43.5634H231.627V36.1268H236.979V29.3662V23.2817V17.1972H231.627V9.76056H225.51V3H94.7695H14.49V9.76056H8.37345V17.1972H3.02148Z" fill="#FF88FE"/>
  </g>
  <path d="M3.02148 15.6972H1.52148V17.1972V23.2817V29.3662V36.1268V37.6268H3.02148H6.87345V43.5634V45.0634H8.37345H12.99V51V52.5H14.49H94.7695H225.51H227.01V51V45.0634H231.627H233.127V43.5634V37.6268H236.979H238.479V36.1268V29.3662V23.2817V17.1972V15.6972H236.979H233.127V9.76056V8.26056H231.627H227.01V3V1.5H225.51H94.7695H14.49H12.99V3V8.26056H8.37345H6.87345V9.76056V15.6972H3.02148Z" stroke="white" stroke-width="3"/>
  <defs>
    <filter id="filter0_iii_235_9560" x="0.0214844" y="0" width="239.958" height="54" filterUnits="userSpaceOnUse" color-interpolation-filters="sRGB">
      <feFlood flood-opacity="0" result="BackgroundImageFix"/>
      <feBlend mode="normal" in="SourceGraphic" in2="BackgroundImageFix" result="shape"/>
      <feColorMatrix in="SourceAlpha" type="matrix" values="0 0 0 0 0 0 0 0 0 0 0 0 0 0 0 0 0 0 127 0" result="hardAlpha"/>
      <feOffset dx="3" dy="8"/>
      <feComposite in2="hardAlpha" operator="arithmetic" k2="-1" k3="1"/>
      <feColorMatrix type="matrix" values="0 0 0 0 1 0 0 0 0 1 0 0 0 0 1 0 0 0 1 0"/>
      <feBlend mode="normal" in2="shape" result="effect1_innerShadow_235_9560"/>
      <feColorMatrix in="SourceAlpha" type="matrix" values="0 0 0 0 0 0 0 0 0 0 0 0 0 0 0 0 0 0 127 0" result="hardAlpha"/>
      <feOffset dy="5"/>
      <feComposite in2="hardAlpha" operator="arithmetic" k2="-1" k3="1"/>
      <feColorMatrix type="matrix" values="0 0 0 0 1 0 0 0 0 0.73 0 0 0 0 0.997731 0 0 0 1 0"/>
      <feBlend mode="normal" in2="effect1_innerShadow_235_9560" result="effect2_innerShadow_235_9560"/>
      <feColorMatrix in="SourceAlpha" type="matrix" values="0 0 0 0 0 0 0 0 0 0 0 0 0 0 0 0 0 0 127 0" result="hardAlpha"/>
      <feOffset dx="-3" dy="-9"/>
      <feComposite in2="hardAlpha" operator="arithmetic" k2="-1" k3="1"/>
      <feColorMatrix type="matrix" values="0 0 0 0 1 0 0 0 0 0.283377 0 0 0 0 0.993978 0 0 0 1 0"/>
      <feBlend mode="normal" in2="effect2_innerShadow_235_9560" result="effect3_innerShadow_235_9560"/>
    </filter>
  </defs>
</svg>