<svg xmlns="http://www.w3.org/2000/svg" width="172" height="40" viewBox="0 0 172 40" fill="none">
  <path d="M165.566 30.8151V33.0625H159.361H159.164V33.2591V35.4586H153.66H153.464V35.6552V39.8034H17.8543V35.8107V35.6141H17.6577H11.9618V33.4352V33.2475L11.7743 33.2388L6.25622 32.9835V32.1176V31.921H6.05961H0.196601V9.88019H6.05961H6.25622V9.68359V7.21519H11.7652H11.9618V7.01859V4.74562H17.6577H17.8543V4.54902V0.217963H153.528V5.17684V5.37344H153.724H159.727V7.81637V8.01297H159.923H164.719V10.2359V10.4325H164.915H171.798L171.272 30.6185H165.763H165.566V30.8151Z" fill="white" stroke="black" stroke-width="0.393201"/>
  <rect x="5.87695" y="29.7088" width="7.473" height="4" fill="white"/>
  <rect x="11.7534" y="32.8544" width="7.473" height="4" fill="white"/>
  <rect x="17.6304" y="36" width="7.473" height="4" fill="white"/>
  <rect x="158.493" y="29.7088" width="7.473" height="4" fill="white"/>
  <rect x="152.072" y="32.8544" width="7.473" height="4" fill="white"/>
  <rect x="152.654" y="3.14563" width="7.473" height="4" fill="white"/>
  <rect x="157.83" y="6.2912" width="7.473" height="4" fill="white"/>
  <rect x="164.527" y="9.43683" width="7.473" height="4" fill="white"/>
  <rect x="164.527" y="12.5825" width="7.473" height="4" fill="white"/>
  <rect x="164.527" y="15.728" width="7.473" height="4" fill="white"/>
  <rect x="164.527" y="18.8737" width="7.473" height="4" fill="white"/>
  <rect x="164.527" y="22.0193" width="7.473" height="4" fill="white"/>
  <rect x="164.527" y="25.1649" width="7.473" height="4" fill="white"/>
  <rect x="164.527" y="28.3105" width="7.473" height="4" fill="white"/>
  <rect x="11.7534" y="3.14563" width="7.473" height="4" fill="white"/>
  <rect x="5.87695" y="6.2912" width="7.473" height="4" fill="white"/>
  <rect y="9.43683" width="7.473" height="4" fill="white"/>
  <rect y="12.5824" width="7.473" height="4" fill="white"/>
  <rect x="17.6304" width="7.473" height="4" fill="white"/>
  <rect x="23.5073" width="7.473" height="4" fill="white"/>
  <rect x="29.3838" width="7.473" height="4" fill="white"/>
  <rect x="35.2607" width="7.473" height="4" fill="white"/>
  <rect x="41.1377" width="7.473" height="4" fill="white"/>
  <rect x="47.0142" width="7.473" height="4" fill="white"/>
  <rect x="52.8911" width="7.473" height="4" fill="white"/>
  <rect x="58.7676" width="7.473" height="4" fill="white"/>
  <rect x="64.6445" width="7.473" height="4" fill="white"/>
  <rect x="70.5215" width="7.473" height="4" fill="white"/>
  <rect x="76.3984" width="7.473" height="4" fill="white"/>
  <rect x="82.2749" width="7.473" height="4" fill="white"/>
  <rect x="88.1519" width="7.473" height="4" fill="white"/>
  <rect x="94.0283" width="7.473" height="4" fill="white"/>
  <rect x="99.9053" width="7.473" height="4" fill="white"/>
  <rect x="105.782" width="7.473" height="4" fill="white"/>
  <rect x="111.659" width="7.473" height="4" fill="white"/>
  <rect x="117.536" width="7.473" height="4" fill="white"/>
  <rect x="123.413" width="7.473" height="4" fill="white"/>
  <rect x="129.289" width="7.473" height="4" fill="white"/>
  <rect x="135.166" width="7.473" height="4" fill="white"/>
  <rect x="141.043" width="7.473" height="4" fill="white"/>
  <rect x="146.585" width="7.473" height="4" fill="white"/>
  <rect y="15.728" width="7.473" height="4" fill="white"/>
  <rect y="18.8737" width="7.473" height="4" fill="white"/>
  <rect y="22.0193" width="7.473" height="4" fill="white"/>
  <rect y="25.1649" width="7.473" height="4" fill="white"/>
  <rect y="28.3105" width="7.473" height="4" fill="white"/>
  <rect x="23.5073" y="36" width="7.473" height="4" fill="white"/>
  <rect x="29.3838" y="36" width="7.473" height="4" fill="white"/>
  <rect x="35.2607" y="36" width="7.473" height="4" fill="white"/>
  <rect x="41.1377" y="36" width="7.473" height="4" fill="white"/>
  <rect x="47.0142" y="36" width="7.473" height="4" fill="white"/>
  <rect x="52.8911" y="36" width="7.473" height="4" fill="white"/>
  <rect x="58.7676" y="36" width="7.473" height="4" fill="white"/>
  <rect x="64.6445" y="36" width="7.473" height="4" fill="white"/>
  <rect x="70.5215" y="36" width="7.473" height="4" fill="white"/>
  <rect x="76.3984" y="36" width="7.473" height="4" fill="white"/>
  <rect x="82.2749" y="36" width="7.473" height="4" fill="white"/>
  <rect x="88.1519" y="36" width="7.473" height="4" fill="white"/>
  <rect x="94.0283" y="36" width="7.473" height="4" fill="white"/>
  <rect x="99.9053" y="36" width="7.473" height="4" fill="white"/>
  <rect x="105.782" y="36" width="7.473" height="4" fill="white"/>
  <rect x="111.659" y="36" width="7.473" height="4" fill="white"/>
  <rect x="117.536" y="36" width="7.473" height="4" fill="white"/>
  <rect x="123.413" y="36" width="7.473" height="4" fill="white"/>
  <rect x="129.289" y="36" width="7.473" height="4" fill="white"/>
  <rect x="135.166" y="36" width="7.473" height="4" fill="white"/>
  <rect x="141.043" y="36" width="7.473" height="4" fill="white"/>
  <rect x="146.585" y="36" width="7.473" height="4" fill="white"/>
</svg>