<svg width="342" height="138" viewBox="0 0 342 138" fill="none" xmlns="http://www.w3.org/2000/svg">
<path d="M18.9059 0H13.2778V3.27752H8.85181V6.55505H4.42578V9.83232H0V14H5.62809V10.7227H10.0539V7.4452H14.4799V4H18.9059V0Z" fill="white"/>
<path d="M5.62809 10.7227V14H18.9059V4H14.4799V7.4452H10.0539V10.7227H5.62809Z" fill="white"/>
<mask id="path-2-inside-1_440_13677" fill="white">
<path d="M18.9058 0H323.094V14H18.9058V0Z"/>
</mask>
<path d="M18.9058 0H323.094V14H18.9058V0Z" fill="white"/>
<path d="M18.9058 4H323.094V-4H18.9058V4Z" fill="white" mask="url(#path-2-inside-1_440_13677)"/>
<path d="M323.094 0H328.722V3.27752H333.148V6.55505H337.574V9.83232H342V14H336.372V10.7227H331.946V7.4452H327.52V4.16768H323.094V0Z" fill="white"/>
<path d="M336.372 10.7227V14H323.094V4.16768H327.52V7.4452H331.946V10.7227H336.372Z" fill="white"/>
<mask id="path-5-inside-2_440_13677" fill="white">
<path d="M0 14H342V124H0V14Z"/>
</mask>
<path d="M0 14H342V124H0V14Z" fill="white"/>
<path d="M338 14V124H346V14H338ZM4 124V14H-4V124H4Z" fill="white" mask="url(#path-5-inside-2_440_13677)"/>
<path d="M18.9059 138H13.2778V134.722H8.85181V131.445H4.42578V128.168H0V124H5.62809V127.277H10.0539V130.555H14.4799V134H18.9059V138Z" fill="white"/>
<path d="M5.62809 127.277V124H18.9059V134H14.4799V130.555H10.0539V127.277H5.62809Z" fill="white"/>
<mask id="path-8-inside-3_440_13677" fill="white">
<path d="M18.9058 124H323.094V138H18.9058V124Z"/>
</mask>
<path d="M18.9058 124H323.094V138H18.9058V124Z" fill="white"/>
<path d="M323.094 134H18.9058V142H323.094V134Z" fill="white" mask="url(#path-8-inside-3_440_13677)"/>
<path d="M323.094 138H328.722V134.722H333.148V131.445H337.574V128.168H342V124H336.372V127.277H331.946V130.555H327.52V133.832H323.094V138Z" fill="white"/>
<path d="M336.372 127.277V124H323.094V133.832H327.52V130.555H331.946V127.277H336.372Z" fill="white"/>
</svg>
