<svg xmlns="http://www.w3.org/2000/svg" width="24" height="24" viewBox="0 0 24 24" fill="none">
  <path d="M8.83421 4.99976C8.22452 4.99976 6.38637 5.78333 6.0566 5.93992C5.72682 6.09652 5.36078 6.58535 4.94544 7.39214C4.52953 8.19893 4.19579 9.14208 3.65352 10.5294C3.11182 11.9167 2.98547 14.5913 3.0036 15.4077C3.02173 16.224 3.11069 16.8617 3.90681 17.3445C4.70235 17.8268 5.40611 18.3318 6.14669 18.6354C6.88784 18.9391 7.39328 19.1576 7.73665 18.8539C8.08003 18.5503 8.30611 18.0186 8.30611 18.0186C8.30611 18.0186 8.63136 17.544 8.01713 17.2594C7.40291 16.9742 7.09579 16.7747 7.12243 16.4806C7.14962 16.1865 7.19439 16.0251 7.34794 16.0632C7.5015 16.1013 7.86358 16.7843 9.25465 17.0975C10.6457 17.4106 12.0017 17.3636 12.0017 17.3636C12.0017 17.3636 13.3582 17.4112 14.7493 17.0975C16.1403 16.7843 16.5018 16.1013 16.6554 16.0632C16.809 16.0251 16.8537 16.1865 16.8809 16.48C16.9081 16.7747 16.601 16.9742 15.9868 17.2594C15.3725 17.544 15.6978 18.0186 15.6978 18.0186C15.6978 18.0186 15.9239 18.5497 16.2673 18.8539C16.6101 19.1576 17.1161 18.9391 17.8567 18.6354C18.5972 18.3318 19.3016 17.8274 20.0971 17.3445C20.8932 16.8617 20.9822 16.224 21.0003 15.4077C21.0184 14.5919 20.8921 11.9167 20.3498 10.5294C19.8081 9.14208 19.4738 8.19893 19.0579 7.39214C18.6431 6.58535 18.2765 6.09652 17.9473 5.93932C17.6175 5.78333 15.7788 4.99976 15.1691 4.99976C14.5594 4.99976 14.3792 5.44632 14.3792 5.44632L14.1668 5.93992C14.1668 5.93992 12.7389 5.65472 12.0113 5.65412C11.2838 5.65412 9.83715 5.93992 9.83715 5.93992L9.62466 5.44572C9.62466 5.44572 9.44447 4.99976 8.83421 4.99976ZM8.90051 10.923H8.92317C9.81222 10.923 10.5324 11.7405 10.5324 12.7485C10.5324 13.7572 9.81222 14.5741 8.92317 14.5741C8.03413 14.5741 7.31395 13.7572 7.31395 12.7485C7.31338 11.75 8.02053 10.9367 8.90051 10.923ZM15.0807 10.923H15.1034C15.9834 10.9367 16.69 11.7506 16.69 12.7485C16.69 13.7572 15.9698 14.5741 15.0807 14.5741C14.1911 14.5741 13.4715 13.7572 13.4715 12.7485C13.4715 11.7405 14.1911 10.923 15.0807 10.923Z" fill="white"/>
  <rect x="6.66846" y="5.33325" width="0.666667" height="0.666667" fill="white"/>
  <rect x="6.00195" y="5.33325" width="0.666667" height="0.666667" fill="white"/>
  <rect x="7.33496" y="4.6665" width="0.666667" height="0.666667" fill="white"/>
  <rect x="8.00195" y="4.6665" width="0.666667" height="0.666667" fill="white"/>
  <rect x="8.66846" y="4.6665" width="0.666667" height="0.666667" fill="white"/>
  <rect x="5.33496" y="5.99976" width="0.666667" height="0.666667" fill="white"/>
  <rect x="4.66846" y="6.6665" width="0.666667" height="0.666667" fill="white"/>
  <rect x="4.66846" y="7.33325" width="0.666667" height="0.666667" fill="white"/>
  <rect x="4.00195" y="7.99976" width="0.666667" height="0.666667" fill="white"/>
  <rect x="4.00195" y="8.6665" width="0.666667" height="0.666667" fill="white"/>
  <rect x="3.33496" y="9.33325" width="0.666667" height="0.666667" fill="white"/>
  <rect x="3.33496" y="9.99976" width="0.666667" height="0.666667" fill="white"/>
  <rect x="3.33496" y="10.6665" width="0.666667" height="0.666667" fill="white"/>
  <rect x="3.33496" y="11.3333" width="0.666667" height="0.666667" fill="white"/>
  <rect x="2.66846" y="11.9998" width="0.666667" height="0.666667" fill="white"/>
  <rect x="2.66846" y="12.6665" width="0.666667" height="0.666667" fill="white"/>
  <rect x="2.66846" y="13.3333" width="0.666667" height="0.666667" fill="white"/>
  <rect x="2.66846" y="13.9998" width="0.666667" height="0.666667" fill="white"/>
  <rect x="2.66846" y="14.6665" width="0.666667" height="0.666667" fill="white"/>
  <rect x="2.66846" y="15.3333" width="0.666667" height="0.666667" fill="white"/>
  <rect x="2.66846" y="15.9998" width="0.666667" height="0.666667" fill="white"/>
  <rect x="3.33496" y="16.6665" width="0.666667" height="0.666667" fill="white"/>
  <rect x="3.33496" y="17.3333" width="0.666667" height="0.666667" fill="white"/>
  <rect x="4.00195" y="17.3333" width="0.666667" height="0.666667" fill="white"/>
  <rect x="5.33496" y="17.9998" width="0.666667" height="0.666667" fill="white"/>
  <rect x="4.66846" y="17.9998" width="0.666667" height="0.666667" fill="white"/>
  <rect x="6.00195" y="17.9998" width="0.666667" height="0.666667" fill="white"/>
  <rect x="6.00195" y="18.6665" width="0.666667" height="0.666667" fill="white"/>
  <rect x="6.66846" y="18.6665" width="0.666667" height="0.666667" fill="white"/>
  <rect x="7.33496" y="18.6665" width="0.666667" height="0.666667" fill="white"/>
  <rect x="8.00195" y="17.9998" width="0.666667" height="0.666667" fill="white"/>
  <rect x="8.00195" y="17.3333" width="0.666667" height="0.666667" fill="white"/>
  <rect x="8.00195" y="16.6665" width="0.666667" height="0.666667" fill="white"/>
  <rect x="7.33496" y="16.6665" width="0.666667" height="0.666667" fill="white"/>
  <rect x="6.66846" y="15.9998" width="0.666667" height="0.666667" fill="white"/>
  <rect x="7.33496" y="15.9998" width="0.666667" height="0.666667" fill="white"/>
  <rect x="8.66846" y="16.6665" width="0.666667" height="0.666667" fill="white"/>
  <rect x="9.33496" y="16.6665" width="0.666667" height="0.666667" fill="white"/>
  <rect x="10.002" y="16.6665" width="0.666667" height="0.666667" fill="white"/>
  <rect x="10.6685" y="17.3333" width="0.666667" height="0.666667" fill="white"/>
  <rect x="11.335" y="17.3333" width="0.666667" height="0.666667" fill="white"/>
  <rect x="12.002" y="17.3333" width="0.666667" height="0.666667" fill="white"/>
  <rect x="12.6685" y="17.3333" width="0.666667" height="0.666667" fill="white"/>
  <rect x="13.335" y="16.6665" width="0.666667" height="0.666667" fill="white"/>
  <rect x="14.002" y="16.6665" width="0.666667" height="0.666667" fill="white"/>
  <rect x="14.6685" y="16.6665" width="0.666667" height="0.666667" fill="white"/>
  <rect x="16.002" y="15.9998" width="0.666667" height="0.666667" fill="white"/>
  <rect x="15.335" y="16.6665" width="0.666667" height="0.666667" fill="white"/>
  <rect x="16.6685" y="15.9998" width="0.666667" height="0.666667" fill="white"/>
  <rect x="16.002" y="16.6665" width="0.666667" height="0.666667" fill="white"/>
  <rect x="15.335" y="17.3333" width="0.666667" height="0.666667" fill="white"/>
  <rect x="15.335" y="17.9998" width="0.666667" height="0.666667" fill="white"/>
  <rect x="16.002" y="18.6665" width="0.666667" height="0.666667" fill="white"/>
  <rect x="16.6685" y="18.6665" width="0.666667" height="0.666667" fill="white"/>
  <rect x="17.335" y="18.6665" width="0.666667" height="0.666667" fill="white"/>
  <rect x="17.335" y="17.9998" width="0.666667" height="0.666667" fill="white"/>
  <rect x="19.335" y="17.3333" width="0.666667" height="0.666667" fill="white"/>
  <rect x="18.002" y="17.9998" width="0.666667" height="0.666667" fill="white"/>
  <rect x="18.6685" y="17.9998" width="0.666667" height="0.666667" fill="white"/>
  <rect x="20.002" y="17.3333" width="0.666667" height="0.666667" fill="white"/>
  <rect x="20.6685" y="15.3333" width="0.666667" height="0.666667" fill="white"/>
  <rect x="20.6685" y="15.9998" width="0.666667" height="0.666667" fill="white"/>
  <rect x="20.002" y="16.6665" width="0.666667" height="0.666667" fill="white"/>
  <rect x="20.002" y="10.6665" width="0.666667" height="0.666667" fill="white"/>
  <rect x="20.002" y="11.3333" width="0.666667" height="0.666667" fill="white"/>
  <rect x="20.6685" y="11.9998" width="0.666667" height="0.666667" fill="white"/>
  <rect x="20.6685" y="12.6665" width="0.666667" height="0.666667" fill="white"/>
  <rect x="20.6685" y="13.3333" width="0.666667" height="0.666667" fill="white"/>
  <rect x="20.6685" y="13.9998" width="0.666667" height="0.666667" fill="white"/>
  <rect x="20.6685" y="14.6665" width="0.666667" height="0.666667" fill="white"/>
  <rect x="20.002" y="9.99976" width="0.666667" height="0.666667" fill="white"/>
  <rect x="18.6685" y="7.33325" width="0.666667" height="0.666667" fill="white"/>
  <rect x="19.335" y="7.99976" width="0.666667" height="0.666667" fill="white"/>
  <rect x="19.335" y="8.6665" width="0.666667" height="0.666667" fill="white"/>
  <rect x="20.002" y="9.33325" width="0.666667" height="0.666667" fill="white"/>
  <rect x="18.002" y="5.99976" width="0.666667" height="0.666667" fill="white"/>
  <rect x="18.6685" y="6.6665" width="0.666667" height="0.666667" fill="white"/>
  <rect x="17.335" y="5.33325" width="0.666667" height="0.666667" fill="white"/>
  <rect x="16.6685" y="5.33325" width="0.666667" height="0.666667" fill="white"/>
  <rect x="15.335" y="4.6665" width="0.666667" height="0.666667" fill="white"/>
  <rect x="16.002" y="4.6665" width="0.666667" height="0.666667" fill="white"/>
  <rect x="14.6685" y="4.6665" width="0.666667" height="0.666667" fill="white"/>
  <rect x="14.002" y="5.33325" width="0.666667" height="0.666667" fill="white"/>
  <rect x="12.002" y="5.33325" width="0.666667" height="0.666667" fill="white"/>
  <rect x="12.6685" y="5.33325" width="0.666667" height="0.666667" fill="white"/>
  <rect x="13.335" y="5.33325" width="0.666667" height="0.666667" fill="white"/>
  <rect x="11.335" y="5.33325" width="0.666667" height="0.666667" fill="white"/>
  <rect x="10.002" y="5.33325" width="0.666667" height="0.666667" fill="white"/>
  <rect x="10.6685" y="5.33325" width="0.666667" height="0.666667" fill="white"/>
  <rect x="9.33496" y="5.33325" width="0.666667" height="0.666667" fill="white"/>
  <rect x="8.66846" y="10.6665" width="0.666667" height="0.666667" fill="white"/>
  <rect x="9.33496" y="10.6665" width="0.666667" height="0.666667" fill="white"/>
  <rect x="10.002" y="11.3333" width="0.666667" height="0.666667" fill="white"/>
  <rect x="10.002" y="11.9998" width="0.666667" height="0.666667" fill="white"/>
  <rect x="10.002" y="12.6665" width="0.666667" height="0.666667" fill="white"/>
  <rect x="10.002" y="13.3333" width="0.666667" height="0.666667" fill="white"/>
  <rect x="9.33496" y="13.9998" width="0.666667" height="0.666667" fill="white"/>
  <rect x="8.66846" y="13.9998" width="0.666667" height="0.666667" fill="white"/>
  <rect x="6.66846" y="12.6665" width="0.666667" height="0.666667" fill="white"/>
  <rect x="7.33496" y="13.3333" width="0.666667" height="0.666667" fill="white"/>
  <rect x="8.00195" y="13.9998" width="0.666667" height="0.666667" fill="white"/>
  <rect x="8.00195" y="10.6665" width="0.666667" height="0.666667" fill="white"/>
  <rect x="7.33496" y="11.3333" width="0.666667" height="0.666667" fill="white"/>
  <rect x="7.33496" y="11.9998" width="0.666667" height="0.666667" fill="white"/>
  <rect x="14.6685" y="10.6665" width="0.666667" height="0.666667" fill="white"/>
  <rect x="15.335" y="10.6665" width="0.666667" height="0.666667" fill="white"/>
  <rect x="16.002" y="11.3333" width="0.666667" height="0.666667" fill="white"/>
  <rect x="16.002" y="11.9998" width="0.666667" height="0.666667" fill="white"/>
  <rect x="16.6685" y="12.6665" width="0.666667" height="0.666667" fill="white"/>
  <rect x="16.002" y="13.3333" width="0.666667" height="0.666667" fill="white"/>
  <rect x="15.335" y="13.9998" width="0.666667" height="0.666667" fill="white"/>
  <rect x="14.6685" y="13.9998" width="0.666667" height="0.666667" fill="white"/>
  <rect x="13.335" y="12.6665" width="0.666667" height="0.666667" fill="white"/>
  <rect x="13.335" y="13.3333" width="0.666667" height="0.666667" fill="white"/>
  <rect x="14.002" y="13.9998" width="0.666667" height="0.666667" fill="white"/>
  <rect x="14.002" y="10.6665" width="0.666667" height="0.666667" fill="white"/>
  <rect x="13.335" y="11.3333" width="0.666667" height="0.666667" fill="white"/>
  <rect x="13.335" y="11.9998" width="0.666667" height="0.666667" fill="white"/>
</svg>