<svg xmlns="http://www.w3.org/2000/svg" width="24" height="24" viewBox="0 0 24 24" fill="none">
  <path d="M21.947 2.76481C21.7313 2.58608 21.4714 2.46904 21.1946 2.42608C20.9179 2.38312 20.6346 2.41586 20.375 2.52081L2.45798 9.75381C2.16845 9.87279 1.92195 10.077 1.75121 10.3394C1.58047 10.6017 1.49357 10.9098 1.50203 11.2227C1.51049 11.5356 1.61392 11.8386 1.79859 12.0913C1.98326 12.3441 2.24044 12.5347 2.53598 12.6378L6.40198 13.9798L8.49698 20.9058C8.50098 20.9198 8.51398 20.9288 8.51998 20.9418C8.54156 20.9971 8.57308 21.0479 8.61298 21.0918C8.67359 21.1595 8.75184 21.209 8.83898 21.2348C8.84898 21.2388 8.85598 21.2478 8.86598 21.2498H8.87198L8.87498 21.2508C8.95234 21.2675 9.03273 21.2633 9.10798 21.2388C9.11598 21.2368 9.12398 21.2368 9.13298 21.2338C9.20522 21.2085 9.2706 21.1667 9.32398 21.1118C9.32998 21.1048 9.33998 21.1038 9.34598 21.0978L12.359 17.7718L16.756 21.1768C17.023 21.3858 17.352 21.4988 17.691 21.4988C18.425 21.4988 19.058 20.9848 19.209 20.2678L22.471 4.24981C22.5263 3.97788 22.5068 3.69604 22.4145 3.43433C22.3222 3.17263 22.1606 2.94088 21.947 2.76381M9.58998 15.2948L8.88298 18.7318L7.40798 13.8538L14.723 10.0438L9.72598 15.0418C9.65678 15.111 9.60948 15.1989 9.58998 15.2948ZM18.229 20.0668C18.2102 20.1575 18.1684 20.2418 18.1077 20.3117C18.0469 20.3816 17.9692 20.4346 17.882 20.4658C17.7969 20.4986 17.7048 20.5086 17.6146 20.4949C17.5245 20.4812 17.4395 20.4443 17.368 20.3878L12.605 16.6988C12.5054 16.6219 12.3805 16.5854 12.2552 16.5966C12.1299 16.6077 12.0134 16.6656 11.929 16.7588L9.83198 19.0698L10.538 15.6428L17.727 8.45281C17.8112 8.36834 17.8624 8.25656 17.8714 8.13765C17.8804 8.01873 17.8466 7.90051 17.7762 7.80431C17.7057 7.70811 17.6031 7.64028 17.487 7.61305C17.3709 7.58582 17.2489 7.60098 17.143 7.65581L6.77998 13.0538L2.86298 11.6918C2.75912 11.6575 2.66854 11.5917 2.60384 11.5035C2.53913 11.4153 2.50353 11.3092 2.50198 11.1998C2.49699 11.0895 2.52647 10.9803 2.58632 10.8875C2.64617 10.7947 2.73342 10.7228 2.83598 10.6818L20.75 3.44881C20.8418 3.40981 20.9426 3.39719 21.0412 3.41238C21.1398 3.42758 21.2322 3.46998 21.308 3.53481C21.3833 3.5958 21.4403 3.67653 21.4724 3.76801C21.5046 3.85948 21.5106 3.95808 21.49 4.05281L18.229 20.0668Z" fill="white"/>
  <rect x="21.002" y="1.99976" width="1" height="1" fill="white"/>
  <rect x="20.002" y="1.99976" width="1" height="1" fill="white"/>
  <rect x="17.002" y="2.99976" width="1" height="1" fill="white"/>
  <rect x="15.002" y="3.99976" width="1" height="1" fill="white"/>
  <rect x="12.002" y="4.99976" width="1" height="1" fill="white"/>
  <rect x="10.002" y="5.99976" width="1" height="1" fill="white"/>
  <rect x="8.00195" y="6.99976" width="1" height="1" fill="white"/>
  <rect x="5.00195" y="7.99976" width="1" height="1" fill="white"/>
  <rect x="3.00195" y="8.99976" width="1" height="1" fill="white"/>
  <rect x="2.00195" y="8.99976" width="1" height="1" fill="white"/>
  <rect x="4.00195" y="7.99976" width="1" height="1" fill="white"/>
  <rect x="6.00195" y="7.99976" width="1" height="1" fill="white"/>
  <rect x="7.00195" y="6.99976" width="1" height="1" fill="white"/>
  <rect x="9.00195" y="5.99976" width="1" height="1" fill="white"/>
  <rect x="11.002" y="5.99976" width="1" height="1" fill="white"/>
  <rect x="13.002" y="4.99976" width="1" height="1" fill="white"/>
  <rect x="14.002" y="3.99976" width="1" height="1" fill="white"/>
  <rect x="16.002" y="3.99976" width="1" height="1" fill="white"/>
  <rect x="18.002" y="2.99976" width="1" height="1" fill="white"/>
  <rect x="19.002" y="1.99976" width="1" height="1" fill="white"/>
  <rect x="1.00195" y="9.99976" width="1" height="1" fill="white"/>
  <rect x="1.00195" y="10.9998" width="1" height="1" fill="white"/>
  <rect x="1.00195" y="11.9998" width="1" height="1" fill="white"/>
  <rect x="2.00195" y="11.9998" width="1" height="1" fill="white"/>
  <rect x="5.00195" y="12.9998" width="1" height="1" fill="white"/>
  <rect x="3.00195" y="11.9998" width="1" height="1" fill="white"/>
  <rect x="4.00195" y="12.9998" width="1" height="1" fill="white"/>
  <rect x="6.00195" y="12.9998" width="1" height="1" fill="white"/>
  <rect x="6.00195" y="13.9998" width="1" height="1" fill="white"/>
  <rect x="6.00195" y="14.9998" width="1" height="1" fill="white"/>
  <rect x="7.00195" y="15.9998" width="1" height="1" fill="white"/>
  <rect x="7.00195" y="16.9998" width="1" height="1" fill="white"/>
  <rect x="7.00195" y="17.9998" width="1" height="1" fill="white"/>
  <rect x="8.00195" y="18.9998" width="1" height="1" fill="white"/>
  <rect x="8.00195" y="19.9998" width="1" height="1" fill="white"/>
  <rect x="8.00195" y="20.9998" width="1" height="1" fill="white"/>
  <rect x="9.00195" y="20.9998" width="1" height="1" fill="white"/>
  <rect x="11.002" y="17.9998" width="1" height="1" fill="white"/>
  <rect x="10.002" y="18.9998" width="1" height="1" fill="white"/>
  <rect x="9.00195" y="19.9998" width="1" height="1" fill="white"/>
  <rect x="12.002" y="16.9998" width="1" height="1" fill="white"/>
  <rect x="13.002" y="17.9998" width="1" height="1" fill="white"/>
  <rect x="14.002" y="18.9998" width="1" height="1" fill="white"/>
  <rect x="15.002" y="19.9998" width="1" height="1" fill="white"/>
  <rect x="16.002" y="19.9998" width="1" height="1" fill="white"/>
  <rect x="16.002" y="20.9998" width="1" height="1" fill="white"/>
  <rect x="17.002" y="20.9998" width="1" height="1" fill="white"/>
  <rect x="19.002" y="19.9998" width="1" height="1" fill="white"/>
  <rect x="18.002" y="20.9998" width="1" height="1" fill="white"/>
  <rect x="22.002" y="3.99976" width="1" height="1" fill="white"/>
  <rect x="22.002" y="4.99976" width="1" height="1" fill="white"/>
  <rect x="22.002" y="5.99976" width="1" height="1" fill="white"/>
  <rect x="21.002" y="6.99976" width="1" height="1" fill="white"/>
  <rect x="21.002" y="7.99976" width="1" height="1" fill="white"/>
  <rect x="21.002" y="8.99976" width="1" height="1" fill="white"/>
  <rect x="21.002" y="9.99976" width="1" height="1" fill="white"/>
  <rect x="20.002" y="10.9998" width="1" height="1" fill="white"/>
  <rect x="20.002" y="11.9998" width="1" height="1" fill="white"/>
  <rect x="20.002" y="12.9998" width="1" height="1" fill="white"/>
  <rect x="20.002" y="13.9998" width="1" height="1" fill="white"/>
  <rect x="20.002" y="14.9998" width="1" height="1" fill="white"/>
  <rect x="19.002" y="15.9998" width="1" height="1" fill="white"/>
  <rect x="19.002" y="16.9998" width="1" height="1" fill="white"/>
  <rect x="19.002" y="17.9998" width="1" height="1" fill="white"/>
  <rect x="19.002" y="18.9998" width="1" height="1" fill="white"/>
  <rect x="22.002" y="2.99976" width="1" height="1" fill="white"/>
  <rect x="9.00195" y="14.9998" width="1" height="1" fill="white"/>
  <rect x="9.00195" y="15.9998" width="1" height="1" fill="white"/>
  <rect x="9.00195" y="16.9998" width="1" height="1" fill="white"/>
  <rect x="8.00195" y="17.9998" width="1" height="1" fill="white"/>
  <rect x="7.00195" y="13.9998" width="1" height="1" fill="white"/>
  <rect x="7.00195" y="14.9998" width="1" height="1" fill="white"/>
  <rect x="8.00195" y="15.9998" width="1" height="1" fill="white"/>
  <rect x="8.00195" y="16.9998" width="1" height="1" fill="white"/>
  <rect x="7.00195" y="12.9998" width="1" height="1" fill="white"/>
  <rect x="13.002" y="9.99976" width="1" height="1" fill="white"/>
  <rect x="11.002" y="10.9998" width="1" height="1" fill="white"/>
  <rect x="10.002" y="11.9998" width="1" height="1" fill="white"/>
  <rect x="8.00195" y="12.9998" width="1" height="1" fill="white"/>
  <rect x="9.00195" y="11.9998" width="1" height="1" fill="white"/>
  <rect x="12.002" y="10.9998" width="1" height="1" fill="white"/>
  <rect x="14.002" y="9.99976" width="1" height="1" fill="white"/>
  <rect x="13.002" y="10.9998" width="1" height="1" fill="white"/>
  <rect x="12.002" y="11.9998" width="1" height="1" fill="white"/>
  <rect x="11.002" y="12.9998" width="1" height="1" fill="white"/>
  <rect x="10.002" y="13.9998" width="1" height="1" fill="white"/>
  <rect x="18.002" y="19.9998" width="1" height="1" fill="white"/>
  <rect x="17.002" y="19.9998" width="1" height="1" fill="white"/>
  <rect x="13.002" y="16.9998" width="1" height="1" fill="white"/>
  <rect x="14.002" y="17.9998" width="1" height="1" fill="white"/>
  <rect x="16.002" y="18.9998" width="1" height="1" fill="white"/>
  <rect x="15.002" y="17.9998" width="1" height="1" fill="white"/>
  <rect x="12.002" y="15.9998" width="1" height="1" fill="white"/>
  <rect x="11.002" y="15.9998" width="1" height="1" fill="white"/>
  <rect x="11.002" y="16.9998" width="1" height="1" fill="white"/>
  <rect x="10.002" y="17.9998" width="1" height="1" fill="white"/>
  <rect x="9.00195" y="18.9998" width="1" height="1" fill="white"/>
  <rect x="10.002" y="15.9998" width="1" height="1" fill="white"/>
  <rect x="10.002" y="16.9998" width="1" height="1" fill="white"/>
  <rect x="9.00195" y="17.9998" width="1" height="1" fill="white"/>
  <rect x="10.002" y="14.9998" width="1" height="1" fill="white"/>
  <rect x="17.002" y="7.99976" width="1" height="1" fill="white"/>
  <rect x="16.002" y="8.99976" width="1" height="1" fill="white"/>
  <rect x="15.002" y="9.99976" width="1" height="1" fill="white"/>
  <rect x="14.002" y="10.9998" width="1" height="1" fill="white"/>
  <rect x="13.002" y="11.9998" width="1" height="1" fill="white"/>
  <rect x="12.002" y="12.9998" width="1" height="1" fill="white"/>
  <rect x="11.002" y="13.9998" width="1" height="1" fill="white"/>
  <rect x="17.002" y="6.99976" width="1" height="1" fill="white"/>
  <rect x="15.002" y="7.99976" width="1" height="1" fill="white"/>
  <rect x="13.002" y="8.99976" width="1" height="1" fill="white"/>
  <rect x="11.002" y="9.99976" width="1" height="1" fill="white"/>
  <rect x="9.00195" y="10.9998" width="1" height="1" fill="white"/>
  <rect x="7.00195" y="11.9998" width="1" height="1" fill="white"/>
  <rect x="8.00195" y="11.9998" width="1" height="1" fill="white"/>
  <rect x="10.002" y="10.9998" width="1" height="1" fill="white"/>
  <rect x="12.002" y="9.99976" width="1" height="1" fill="white"/>
  <rect x="14.002" y="8.99976" width="1" height="1" fill="white"/>
  <rect x="16.002" y="6.99976" width="1" height="1" fill="white"/>
  <rect x="5.00195" y="11.9998" width="1" height="1" fill="white"/>
  <rect x="3.00195" y="10.9998" width="1" height="1" fill="white"/>
  <rect x="4.00195" y="11.9998" width="1" height="1" fill="white"/>
  <rect x="6.00195" y="11.9998" width="1" height="1" fill="white"/>
  <rect x="2.00195" y="10.9998" width="1" height="1" fill="white"/>
  <rect x="2.00195" y="9.99976" width="1" height="1" fill="white"/>
  <rect x="20.002" y="2.99976" width="1" height="1" fill="white"/>
  <rect x="18.002" y="3.99976" width="1" height="1" fill="white"/>
  <rect x="15.002" y="4.99976" width="1" height="1" fill="white"/>
  <rect x="13.002" y="5.99976" width="1" height="1" fill="white"/>
  <rect x="10.002" y="6.99976" width="1" height="1" fill="white"/>
  <rect x="8.00195" y="7.99976" width="1" height="1" fill="white"/>
  <rect x="5.00195" y="8.99976" width="1" height="1" fill="white"/>
  <rect x="3.00195" y="9.99976" width="1" height="1" fill="white"/>
  <rect x="4.00195" y="9.99976" width="1" height="1" fill="white"/>
  <rect x="6.00195" y="8.99976" width="1" height="1" fill="white"/>
  <rect x="7.00195" y="7.99976" width="1" height="1" fill="white"/>
  <rect x="9.00195" y="6.99976" width="1" height="1" fill="white"/>
  <rect x="11.002" y="6.99976" width="1" height="1" fill="white"/>
  <rect x="12.002" y="5.99976" width="1" height="1" fill="white"/>
  <rect x="14.002" y="4.99976" width="1" height="1" fill="white"/>
  <rect x="16.002" y="4.99976" width="1" height="1" fill="white"/>
  <rect x="17.002" y="3.99976" width="1" height="1" fill="white"/>
  <rect x="19.002" y="2.99976" width="1" height="1" fill="white"/>
  <rect x="21.002" y="2.99976" width="1" height="1" fill="white"/>
  <rect x="21.002" y="3.99976" width="1" height="1" fill="white"/>
  <rect x="21.002" y="4.99976" width="1" height="1" fill="white"/>
  <rect x="20.002" y="5.99976" width="1" height="1" fill="white"/>
  <rect x="20.002" y="6.99976" width="1" height="1" fill="white"/>
  <rect x="20.002" y="7.99976" width="1" height="1" fill="white"/>
  <rect x="20.002" y="8.99976" width="1" height="1" fill="white"/>
  <rect x="20.002" y="9.99976" width="1" height="1" fill="white"/>
  <rect x="19.002" y="10.9998" width="1" height="1" fill="white"/>
  <rect x="19.002" y="11.9998" width="1" height="1" fill="white"/>
  <rect x="19.002" y="12.9998" width="1" height="1" fill="white"/>
  <rect x="19.002" y="13.9998" width="1" height="1" fill="white"/>
  <rect x="19.002" y="14.9998" width="1" height="1" fill="white"/>
  <rect x="18.002" y="15.9998" width="1" height="1" fill="white"/>
  <rect x="18.002" y="16.9998" width="1" height="1" fill="white"/>
  <rect x="18.002" y="17.9998" width="1" height="1" fill="white"/>
  <rect x="18.002" y="18.9998" width="1" height="1" fill="white"/>
</svg>