<svg xmlns="http://www.w3.org/2000/svg" width="24" height="24" viewBox="0 0 24 24" fill="none">
  <path d="M6.14934 4.2681L10.665 12.8986L6.12082 19.9155H7.14353L11.1219 13.7721L14.3364 19.9155H17.8167L13.047 10.7996L17.2766 4.2681H16.2539L12.59 9.92609L9.62964 4.2681H6.14934ZM7.6533 5.34491H9.25216L16.3125 18.8386H14.7136L7.6533 5.34491Z" fill="white"/>
  <path d="M6.28125 4.4418H7.09375V5.2918H6.28125V4.4418Z" fill="white"/>
  <path d="M6.28125 5.2918H7.09375V6.1418H6.28125V5.2918Z" fill="white"/>
  <path d="M7.09375 6.1418H7.90625V6.9918H7.09375V6.1418Z" fill="white"/>
  <path d="M7.09375 6.9918H7.90625V7.8418H7.09375V6.9918Z" fill="white"/>
  <path d="M7.90625 7.8418H8.71875V8.6918H7.90625V7.8418Z" fill="white"/>
  <path d="M7.90625 8.6918H8.71875V9.5418H7.90625V8.6918Z" fill="white"/>
  <path d="M8.71875 9.5418H9.53125V10.3918H8.71875V9.5418Z" fill="white"/>
  <path d="M9.53125 10.3918H10.3438V11.2418H9.53125V10.3918Z" fill="white"/>
  <path d="M9.53125 11.2418H10.3438V12.0918H9.53125V11.2418Z" fill="white"/>
  <path d="M10.3438 12.0918H11.1562V12.9418H10.3438V12.0918Z" fill="white"/>
  <path d="M5.46875 3.5918H6.28125V4.4418H5.46875V3.5918Z" fill="white"/>
  <path d="M10.3438 12.9418H11.1562V13.7918H10.3438V12.9418Z" fill="white"/>
  <path d="M9.53125 13.7918H10.3438V14.6418H9.53125V13.7918Z" fill="white"/>
  <path d="M8.71875 14.6418H9.53125V15.4918H8.71875V14.6418Z" fill="white"/>
  <path d="M7.90625 15.4918H8.71875V16.3418H7.90625V15.4918Z" fill="white"/>
  <path d="M7.90625 16.3418H8.71875V17.1918H7.90625V16.3418Z" fill="white"/>
  <path d="M7.09375 17.1918H7.90625V18.0418H7.09375V17.1918Z" fill="white"/>
  <path d="M6.28125 18.0418H7.09375V18.8918H6.28125V18.0418Z" fill="white"/>
  <path d="M6.28125 18.8918H7.09375V19.7418H6.28125V18.8918Z" fill="white"/>
  <path d="M5.46875 19.7418H6.28125V20.5918H5.46875V19.7418Z" fill="white"/>
  <path d="M6.28125 19.7418H7.09375V20.5918H6.28125V19.7418Z" fill="white"/>
  <path d="M7.09375 19.7418H7.90625V20.5918H7.09375V19.7418Z" fill="white"/>
  <path d="M10.3438 13.7918H11.1562V14.6418H10.3438V13.7918Z" fill="white"/>
  <path d="M9.53125 14.6418H10.3438V15.4918H9.53125V14.6418Z" fill="white"/>
  <path d="M9.53125 15.4918H10.3438V16.3418H9.53125V15.4918Z" fill="white"/>
  <path d="M8.71875 16.3418H9.53125V17.1918H8.71875V16.3418Z" fill="white"/>
  <path d="M7.90625 17.1918H8.71875V18.0418H7.90625V17.1918Z" fill="white"/>
  <path d="M7.90625 18.0418H8.71875V18.8918H7.90625V18.0418Z" fill="white"/>
  <path d="M7.09375 18.8918H7.90625V19.7418H7.09375V18.8918Z" fill="white"/>
  <path d="M11.1562 13.7918H11.9688V14.6418H11.1562V13.7918Z" fill="white"/>
  <path d="M11.1562 14.6418H11.9688V15.4918H11.1562V14.6418Z" fill="white"/>
  <path d="M11.9688 15.4918H12.7812V16.3418H11.9688V15.4918Z" fill="white"/>
  <path d="M11.9688 16.3418H12.7812V17.1918H11.9688V16.3418Z" fill="white"/>
  <path d="M12.7812 17.1918H13.5938V18.0418H12.7812V17.1918Z" fill="white"/>
  <path d="M12.7812 18.0418H13.5938V18.8918H12.7812V18.0418Z" fill="white"/>
  <path d="M13.5938 18.8918H14.4062V19.7418H13.5938V18.8918Z" fill="white"/>
  <path d="M13.5938 19.7418H14.4062V20.5918H13.5938V19.7418Z" fill="white"/>
  <path d="M14.4062 19.7418H15.2188V20.5918H14.4062V19.7418Z" fill="white"/>
  <path d="M15.2188 19.7418H16.0312V20.5918H15.2188V19.7418Z" fill="white"/>
  <path d="M16.0312 19.7418H16.8438V20.5918H16.0312V19.7418Z" fill="white"/>
  <path d="M16.8438 19.7418H17.6562V20.5918H16.8438V19.7418Z" fill="white"/>
  <path d="M17.6562 19.7418H18.4688V20.5918H17.6562V19.7418Z" fill="white"/>
  <path d="M12.7812 10.3918H13.5938V11.2418H12.7812V10.3918Z" fill="white"/>
  <path d="M12.7812 11.2418H13.5938V12.0918H12.7812V11.2418Z" fill="white"/>
  <path d="M13.5938 12.0918H14.4062V12.9418H13.5938V12.0918Z" fill="white"/>
  <path d="M13.5938 12.9418H14.4062V13.7918H13.5938V12.9418Z" fill="white"/>
  <path d="M14.4062 13.7918H15.2188V14.6418H14.4062V13.7918Z" fill="white"/>
  <path d="M15.2188 14.6418H16.0312V15.4918H15.2188V14.6418Z" fill="white"/>
  <path d="M15.2188 15.4918H16.0312V16.3418H15.2188V15.4918Z" fill="white"/>
  <path d="M16.0312 16.3418H16.8438V17.1918H16.0312V16.3418Z" fill="white"/>
  <path d="M16.0312 17.1918H16.8438V18.0418H16.0312V17.1918Z" fill="white"/>
  <path d="M16.8438 18.0418H17.6562V18.8918H16.8438V18.0418Z" fill="white"/>
  <path d="M16.8438 18.8918H17.6562V19.7418H16.8438V18.8918Z" fill="white"/>
  <path d="M16.8438 4.4418H17.6562V5.2918H16.8438V4.4418Z" fill="white"/>
  <path d="M16.0312 5.2918H16.8438V6.1418H16.0312V5.2918Z" fill="white"/>
  <path d="M15.2188 6.1418H16.0312V6.9918H15.2188V6.1418Z" fill="white"/>
  <path d="M15.2188 6.9918H16.0312V7.8418H15.2188V6.9918Z" fill="white"/>
  <path d="M14.4062 7.8418H15.2188V8.6918H14.4062V7.8418Z" fill="white"/>
  <path d="M13.5938 8.6918H14.4062V9.5418H13.5938V8.6918Z" fill="white"/>
  <path d="M12.7812 9.5418H13.5938V10.3918H12.7812V9.5418Z" fill="white"/>
  <path d="M16.8438 3.5918H17.6562V4.4418H16.8438V3.5918Z" fill="white"/>
  <path d="M16.0312 3.5918H16.8438V4.4418H16.0312V3.5918Z" fill="white"/>
  <path d="M15.2188 4.4418H16.0312V5.2918H15.2188V4.4418Z" fill="white"/>
  <path d="M15.2188 5.2918H16.0312V6.1418H15.2188V5.2918Z" fill="white"/>
  <path d="M14.4062 6.1418H15.2188V6.9918H14.4062V6.1418Z" fill="white"/>
  <path d="M13.5938 6.9918H14.4062V7.8418H13.5938V6.9918Z" fill="white"/>
  <path d="M13.5938 7.8418H14.4062V8.6918H13.5938V7.8418Z" fill="white"/>
  <path d="M12.7812 8.6918H13.5938V9.5418H12.7812V8.6918Z" fill="white"/>
  <path d="M11.9688 9.5418H12.7812V10.3918H11.9688V9.5418Z" fill="white"/>
  <path d="M9.53125 4.4418H10.3438V5.2918H9.53125V4.4418Z" fill="white"/>
  <path d="M10.3438 5.2918H11.1562V6.1418H10.3438V5.2918Z" fill="white"/>
  <path d="M10.3438 6.1418H11.1562V6.9918H10.3438V6.1418Z" fill="white"/>
  <path d="M11.1562 6.9918H11.9688V7.8418H11.1562V6.9918Z" fill="white"/>
  <path d="M11.1562 7.8418H11.9688V8.6918H11.1562V7.8418Z" fill="white"/>
  <path d="M11.9688 8.6918H12.7812V9.5418H11.9688V8.6918Z" fill="white"/>
  <path d="M9.53125 3.5918H10.3438V4.4418H9.53125V3.5918Z" fill="white"/>
  <path d="M6.28125 3.5918H7.09375V4.4418H6.28125V3.5918Z" fill="white"/>
  <path d="M7.09375 3.5918H7.90625V4.4418H7.09375V3.5918Z" fill="white"/>
  <path d="M7.90625 3.5918H8.71875V4.4418H7.90625V3.5918Z" fill="white"/>
  <path d="M8.71875 3.5918H9.53125V4.4418H8.71875V3.5918Z" fill="white"/>
  <path d="M7.90625 5.2918H8.71875V6.1418H7.90625V5.2918Z" fill="white"/>
  <path d="M8.71875 5.2918H9.53125V6.1418H8.71875V5.2918Z" fill="white"/>
  <path d="M7.09375 5.2918H7.90625V6.1418H7.09375V5.2918Z" fill="white"/>
  <path d="M9.53125 6.1418H10.3438V6.9918H9.53125V6.1418Z" fill="white"/>
  <path d="M9.53125 6.9918H10.3438V7.8418H9.53125V6.9918Z" fill="white"/>
  <path d="M10.3438 7.8418H11.1562V8.6918H10.3438V7.8418Z" fill="white"/>
  <path d="M11.1562 8.6918H11.9688V9.5418H11.1562V8.6918Z" fill="white"/>
  <path d="M11.1562 9.5418H11.9688V10.3918H11.1562V9.5418Z" fill="white"/>
  <path d="M11.9688 10.3918H12.7812V11.2418H11.9688V10.3918Z" fill="white"/>
  <path d="M11.9688 11.2418H12.7812V12.0918H11.9688V11.2418Z" fill="white"/>
  <path d="M12.7812 12.0918H13.5938V12.9418H12.7812V12.0918Z" fill="white"/>
  <path d="M12.7812 12.9418H13.5938V13.7918H12.7812V12.9418Z" fill="white"/>
  <path d="M13.5938 13.7918H14.4062V14.6418H13.5938V13.7918Z" fill="white"/>
  <path d="M13.5938 14.6418H14.4062V15.4918H13.5938V14.6418Z" fill="white"/>
  <path d="M14.4062 15.4918H15.2188V16.3418H14.4062V15.4918Z" fill="white"/>
  <path d="M15.2188 16.3418H16.0312V17.1918H15.2188V16.3418Z" fill="white"/>
  <path d="M15.2188 17.1918H16.0312V18.0418H15.2188V17.1918Z" fill="white"/>
  <path d="M16.0312 18.0418H16.8438V18.8918H16.0312V18.0418Z" fill="white"/>
  <path d="M14.4062 18.0418H15.2188V18.8918H14.4062V18.0418Z" fill="white"/>
  <path d="M15.2188 18.0418H16.0312V18.8918H15.2188V18.0418Z" fill="white"/>
  <path d="M7.90625 6.1418H8.71875V6.9918H7.90625V6.1418Z" fill="white"/>
  <path d="M8.71875 6.9918H9.53125V7.8418H8.71875V6.9918Z" fill="white"/>
  <path d="M8.71875 7.8418H9.53125V8.6918H8.71875V7.8418Z" fill="white"/>
  <path d="M9.53125 8.6918H10.3438V9.5418H9.53125V8.6918Z" fill="white"/>
  <path d="M9.53125 9.5418H10.3438V10.3918H9.53125V9.5418Z" fill="white"/>
  <path d="M10.3438 10.3918H11.1562V11.2418H10.3438V10.3918Z" fill="white"/>
  <path d="M10.3438 11.2418H11.1562V12.0918H10.3438V11.2418Z" fill="white"/>
  <path d="M11.1562 12.0918H11.9688V12.9418H11.1562V12.0918Z" fill="white"/>
  <path d="M11.1562 12.9418H11.9688V13.7918H11.1562V12.9418Z" fill="white"/>
  <path d="M11.9688 13.7918H12.7812V14.6418H11.9688V13.7918Z" fill="white"/>
  <path d="M11.9688 14.6418H12.7812V15.4918H11.9688V14.6418Z" fill="white"/>
  <path d="M12.7812 15.4918H13.5938V16.3418H12.7812V15.4918Z" fill="white"/>
  <path d="M13.5938 16.3418H14.4062V17.1918H13.5938V16.3418Z" fill="white"/>
  <path d="M13.5938 17.1918H14.4062V18.0418H13.5938V17.1918Z" fill="white"/>
</svg>