<svg xmlns="http://www.w3.org/2000/svg" width="21" height="20" viewBox="0 0 21 20" fill="none">
  <g clip-path="url(#clip0_169_6386)">
    <rect x="11.1494" y="4" width="1" height="1" fill="#D9D9D9"/>
    <rect x="12.1494" y="4" width="1" height="1" fill="black"/>
    <rect x="13.1494" y="5" width="1" height="1" fill="black"/>
    <rect x="14.1494" y="6" width="1" height="1" fill="black"/>
    <rect x="15.1494" y="7" width="1" height="1" fill="black"/>
    <rect x="16.1494" y="8" width="1" height="1" fill="black"/>
    <rect x="17.1494" y="9" width="1" height="1" fill="black"/>
    <rect x="17.1494" y="10" width="1" height="1" fill="black"/>
    <rect x="16.1494" y="11" width="1" height="1" fill="black"/>
    <rect x="15.1494" y="12" width="1" height="1" fill="#D9D9D9"/>
    <rect x="14.1494" y="13" width="1" height="1" fill="#D9D9D9"/>
    <rect x="13.1494" y="14" width="1" height="1" fill="#D9D9D9"/>
    <rect x="12.1494" y="15" width="1" height="1" fill="black"/>
    <rect x="11.1494" y="15" width="1" height="1" fill="black"/>
    <rect x="11.1494" y="14" width="1" height="1" fill="black"/>
    <rect x="14.1494" y="11" width="1" height="1" fill="#D9D9D9"/>
    <rect x="13.1494" y="12" width="1" height="1" fill="#D9D9D9"/>
    <rect x="12.1494" y="13" width="1" height="1" fill="black"/>
    <rect x="15.1494" y="10" width="1" height="1" fill="#D9D9D9"/>
    <rect x="3.14941" y="10" width="1" height="1" fill="black"/>
    <rect x="4.14941" y="10" width="1" height="1" fill="black"/>
    <rect x="5.14941" y="10" width="1" height="1" fill="black"/>
    <rect x="6.14941" y="10" width="1" height="1" fill="black"/>
    <rect x="7.14941" y="10" width="1" height="1" fill="#D9D9D9"/>
    <rect x="8.14941" y="10" width="1" height="1" fill="black"/>
    <rect x="9.14941" y="10" width="1" height="1" fill="black"/>
    <rect x="10.1494" y="10" width="1" height="1" fill="black"/>
    <rect x="11.1494" y="10" width="1" height="1" fill="black"/>
    <rect x="12.1494" y="10" width="1" height="1" fill="#D9D9D9"/>
    <rect x="13.1494" y="10" width="1" height="1" fill="black"/>
    <rect x="14.1494" y="10" width="1" height="1" fill="black"/>
    <rect x="2.14941" y="10" width="1" height="1" fill="black"/>
    <rect x="2.14941" y="9" width="1" height="1" fill="black"/>
    <rect x="3.14941" y="9" width="1" height="1" fill="#D9D9D9"/>
    <rect x="4.14941" y="9" width="1" height="1" fill="black"/>
    <rect x="5.14941" y="9" width="1" height="1" fill="black"/>
    <rect x="6.14941" y="9" width="1" height="1" fill="black"/>
    <rect x="7.14941" y="9" width="1" height="1" fill="black"/>
    <rect x="8.14941" y="9" width="1" height="1" fill="black"/>
    <rect x="9.14941" y="9" width="1" height="1" fill="black"/>
    <rect x="10.1494" y="9" width="1" height="1" fill="black"/>
    <rect x="11.1494" y="9" width="1" height="1" fill="black"/>
    <rect x="12.1494" y="9" width="1" height="1" fill="black"/>
    <rect x="13.1494" y="9" width="1" height="1" fill="black"/>
    <rect x="14.1494" y="9" width="1" height="1" fill="black"/>
    <rect x="15.1494" y="9" width="1" height="1" fill="black"/>
    <rect x="11.1494" y="5" width="1" height="1" fill="black"/>
    <rect x="12.1494" y="6" width="1" height="1" fill="black"/>
    <rect x="13.1494" y="7" width="1" height="1" fill="black"/>
    <rect x="14.1494" y="8" width="1" height="1" fill="black"/>
    <rect x="11.1494" y="4" width="1" height="1" fill="black"/>
    <rect x="12.1494" y="4" width="1" height="1" fill="black"/>
    <rect x="13.1494" y="5" width="1" height="1" fill="#D9D9D9"/>
    <rect x="14.1494" y="6" width="1" height="1" fill="black"/>
    <rect x="15.1494" y="7" width="1" height="1" fill="black"/>
    <rect x="16.1494" y="8" width="1" height="1" fill="black"/>
    <rect x="17.1494" y="9" width="1" height="1" fill="#D9D9D9"/>
    <rect x="17.1494" y="10" width="1" height="1" fill="black"/>
    <rect x="16.1494" y="11" width="1" height="1" fill="black"/>
    <rect x="15.1494" y="12" width="1" height="1" fill="#D9D9D9"/>
    <rect x="14.1494" y="13" width="1" height="1" fill="black"/>
    <rect x="13.1494" y="14" width="1" height="1" fill="black"/>
    <rect x="12.1494" y="15" width="1" height="1" fill="black"/>
    <rect x="11.1494" y="15" width="1" height="1" fill="black"/>
    <rect x="11.1494" y="14" width="1" height="1" fill="#D9D9D9"/>
    <rect x="14.1494" y="11" width="1" height="1" fill="#D9D9D9"/>
    <rect x="13.1494" y="12" width="1" height="1" fill="black"/>
    <rect x="12.1494" y="13" width="1" height="1" fill="black"/>
    <rect x="15.1494" y="10" width="1" height="1" fill="black"/>
    <rect x="3.14941" y="10" width="1" height="1" fill="#D9D9D9"/>
    <rect x="4.14941" y="10" width="1" height="1" fill="#D9D9D9"/>
    <rect x="5.14941" y="10" width="1" height="1" fill="black"/>
    <rect x="6.14941" y="10" width="1" height="1" fill="#D9D9D9"/>
    <rect x="7.14941" y="10" width="1" height="1" fill="black"/>
    <rect x="8.14941" y="10" width="1" height="1" fill="black"/>
    <rect x="9.14941" y="10" width="1" height="1" fill="#D9D9D9"/>
    <rect x="10.1494" y="10" width="1" height="1" fill="#D9D9D9"/>
    <rect x="11.1494" y="10" width="1" height="1" fill="#D9D9D9"/>
    <rect x="12.1494" y="10" width="1" height="1" fill="black"/>
    <rect x="13.1494" y="10" width="1" height="1" fill="#D9D9D9"/>
    <rect x="14.1494" y="10" width="1" height="1" fill="black"/>
    <rect x="2.14941" y="10" width="1" height="1" fill="#D9D9D9"/>
    <rect x="2.14941" y="9" width="1" height="1" fill="black"/>
    <rect x="3.14941" y="9" width="1" height="1" fill="#D9D9D9"/>
    <rect x="4.14941" y="9" width="1" height="1" fill="black"/>
    <rect x="5.14941" y="9" width="1" height="1" fill="black"/>
    <rect x="6.14941" y="9" width="1" height="1" fill="#D9D9D9"/>
    <rect x="7.14941" y="9" width="1" height="1" fill="black"/>
    <rect x="8.14941" y="9" width="1" height="1" fill="#D9D9D9"/>
    <rect x="9.14941" y="9" width="1" height="1" fill="black"/>
    <rect x="10.1494" y="9" width="1" height="1" fill="black"/>
    <rect x="11.1494" y="9" width="1" height="1" fill="#D9D9D9"/>
    <rect x="12.1494" y="9" width="1" height="1" fill="#D9D9D9"/>
    <rect x="13.1494" y="9" width="1" height="1" fill="black"/>
    <rect x="14.1494" y="9" width="1" height="1" fill="black"/>
    <rect x="15.1494" y="9" width="1" height="1" fill="black"/>
    <rect x="11.1494" y="5" width="1" height="1" fill="black"/>
    <rect x="12.1494" y="6" width="1" height="1" fill="black"/>
    <rect x="13.1494" y="7" width="1" height="1" fill="black"/>
    <rect x="14.1494" y="8" width="1" height="1" fill="black"/>
    <rect x="11.1494" y="4" width="1" height="1" fill="#D9D9D9"/>
    <rect x="12.1494" y="4" width="1" height="1" fill="black"/>
    <rect x="13.1494" y="5" width="1" height="1" fill="#D9D9D9"/>
    <rect x="14.1494" y="6" width="1" height="1" fill="black"/>
    <rect x="15.1494" y="7" width="1" height="1" fill="black"/>
    <rect x="16.1494" y="8" width="1" height="1" fill="#D9D9D9"/>
    <rect x="17.1494" y="9" width="1" height="1" fill="black"/>
    <rect x="17.1494" y="10" width="1" height="1" fill="black"/>
    <rect x="16.1494" y="11" width="1" height="1" fill="#D9D9D9"/>
    <rect x="15.1494" y="12" width="1" height="1" fill="black"/>
    <rect x="14.1494" y="13" width="1" height="1" fill="black"/>
    <rect x="13.1494" y="14" width="1" height="1" fill="black"/>
    <rect x="12.1494" y="15" width="1" height="1" fill="black"/>
    <rect x="11.1494" y="15" width="1" height="1" fill="black"/>
    <rect x="11.1494" y="14" width="1" height="1" fill="black"/>
    <rect x="14.1494" y="11" width="1" height="1" fill="#D9D9D9"/>
    <rect x="13.1494" y="12" width="1" height="1" fill="#D9D9D9"/>
    <rect x="12.1494" y="13" width="1" height="1" fill="black"/>
    <rect x="15.1494" y="10" width="1" height="1" fill="black"/>
    <rect x="3.14941" y="10" width="1" height="1" fill="black"/>
    <rect x="4.14941" y="10" width="1" height="1" fill="black"/>
    <rect x="5.14941" y="10" width="1" height="1" fill="black"/>
    <rect x="6.14941" y="10" width="1" height="1" fill="black"/>
    <rect x="7.14941" y="10" width="1" height="1" fill="black"/>
    <rect x="8.14941" y="10" width="1" height="1" fill="black"/>
    <rect x="9.14941" y="10" width="1" height="1" fill="black"/>
    <rect x="10.1494" y="10" width="1" height="1" fill="black"/>
    <rect x="11.1494" y="10" width="1" height="1" fill="black"/>
    <rect x="12.1494" y="10" width="1" height="1" fill="black"/>
    <rect x="13.1494" y="10" width="1" height="1" fill="black"/>
    <rect x="14.1494" y="10" width="1" height="1" fill="black"/>
    <rect x="2.14941" y="10" width="1" height="1" fill="black"/>
    <rect x="2.14941" y="9" width="1" height="1" fill="black"/>
    <rect x="3.14941" y="9" width="1" height="1" fill="black"/>
    <rect x="4.14941" y="9" width="1" height="1" fill="black"/>
    <rect x="5.14941" y="9" width="1" height="1" fill="black"/>
    <rect x="6.14941" y="9" width="1" height="1" fill="black"/>
    <rect x="7.14941" y="9" width="1" height="1" fill="black"/>
    <rect x="8.14941" y="9" width="1" height="1" fill="black"/>
    <rect x="9.14941" y="9" width="1" height="1" fill="black"/>
    <rect x="10.1494" y="9" width="1" height="1" fill="black"/>
    <rect x="11.1494" y="9" width="1" height="1" fill="black"/>
    <rect x="12.1494" y="9" width="1" height="1" fill="black"/>
    <rect x="13.1494" y="9" width="1" height="1" fill="black"/>
    <rect x="14.1494" y="9" width="1" height="1" fill="black"/>
    <rect x="15.1494" y="9" width="1" height="1" fill="black"/>
    <rect x="11.1494" y="5" width="1" height="1" fill="black"/>
    <rect x="12.1494" y="6" width="1" height="1" fill="black"/>
    <rect x="13.1494" y="7" width="1" height="1" fill="black"/>
    <rect x="14.1494" y="8" width="1" height="1" fill="black"/>
    <rect x="11.8491" y="5.44781" width="3.64176" height="3.64176" fill="black"/>
    <rect x="13.6699" y="6.35828" width="3.64176" height="3.64176" fill="black"/>
    <rect x="14.7168" y="8.17914" width="3.64176" height="3.64176" fill="black"/>
    <rect x="16" y="9.00006" width="4" height="2" fill="black"/>
    <rect y="9.00006" width="4" height="2" fill="black"/>
    <rect x="11.8491" y="10.9105" width="3.64176" height="3.64176" fill="black"/>
    <rect x="13.6699" y="10" width="3.64176" height="3.64176" fill="black"/>
    <rect x="11.0747" y="8.17914" width="3.64176" height="3.64176" fill="black"/>
    <rect x="3.79102" y="8.17914" width="3.64176" height="3.64176" fill="black"/>
    <rect x="7.43311" y="8.17914" width="3.64176" height="3.64176" fill="black"/>
    <rect x="1" y="8.17914" width="3.64176" height="3.64176" fill="black"/>
    <rect x="11.1494" y="4" width="1" height="1" fill="black"/>
    <rect x="12.1494" y="4" width="1" height="1" fill="black"/>
    <rect x="13.1494" y="5" width="1" height="1" fill="black"/>
    <rect x="14.1494" y="6" width="1" height="1" fill="black"/>
    <rect x="15.1494" y="7" width="1" height="1" fill="black"/>
    <rect x="16.1494" y="8" width="1" height="1" fill="black"/>
    <rect x="17.1494" y="9" width="1" height="1" fill="black"/>
    <rect x="17.1494" y="10" width="1" height="1" fill="black"/>
    <rect x="16.1494" y="11" width="1" height="1" fill="black"/>
    <rect x="15.1494" y="12" width="1" height="1" fill="black"/>
    <rect x="14.1494" y="13" width="1" height="1" fill="black"/>
    <rect x="13.1494" y="14" width="1" height="1" fill="black"/>
    <rect x="12.1494" y="15" width="1" height="1" fill="black"/>
    <rect x="11.1494" y="15" width="1" height="1" fill="black"/>
    <rect x="11.1494" y="14" width="1" height="1" fill="black"/>
    <rect x="14.1494" y="11" width="1" height="1" fill="black"/>
    <rect x="13.1494" y="12" width="1" height="1" fill="black"/>
    <rect x="12.1494" y="13" width="1" height="1" fill="black"/>
    <rect x="15.1494" y="10" width="1" height="1" fill="black"/>
    <rect x="3.14941" y="10" width="1" height="1" fill="black"/>
    <rect x="4.14941" y="10" width="1" height="1" fill="black"/>
    <rect x="5.14941" y="10" width="1" height="1" fill="black"/>
    <rect x="6.14941" y="10" width="1" height="1" fill="black"/>
    <rect x="7.14941" y="10" width="1" height="1" fill="black"/>
    <rect x="8.14941" y="10" width="1" height="1" fill="black"/>
    <rect x="9.14941" y="10" width="1" height="1" fill="black"/>
    <rect x="10.1494" y="10" width="1" height="1" fill="black"/>
    <rect x="11.1494" y="10" width="1" height="1" fill="black"/>
    <rect x="12.1494" y="10" width="1" height="1" fill="black"/>
    <rect x="13.1494" y="10" width="1" height="1" fill="black"/>
    <rect x="14.1494" y="10" width="1" height="1" fill="black"/>
    <rect x="2.14941" y="10" width="1" height="1" fill="black"/>
    <rect x="2.14941" y="9" width="1" height="1" fill="black"/>
    <rect x="3.14941" y="9" width="1" height="1" fill="black"/>
    <rect x="4.14941" y="9" width="1" height="1" fill="black"/>
    <rect x="5.14941" y="9" width="1" height="1" fill="black"/>
    <rect x="6.14941" y="9" width="1" height="1" fill="black"/>
    <rect x="7.14941" y="9" width="1" height="1" fill="black"/>
    <rect x="8.14941" y="9" width="1" height="1" fill="black"/>
    <rect x="9.14941" y="9" width="1" height="1" fill="black"/>
    <rect x="10.1494" y="9" width="1" height="1" fill="black"/>
    <rect x="11.1494" y="9" width="1" height="1" fill="black"/>
    <rect x="12.1494" y="9" width="1" height="1" fill="black"/>
    <rect x="13.1494" y="9" width="1" height="1" fill="black"/>
    <rect x="14.1494" y="9" width="1" height="1" fill="black"/>
    <rect x="15.1494" y="9" width="1" height="1" fill="black"/>
    <rect x="11.1494" y="5" width="1" height="1" fill="black"/>
    <rect x="12.1494" y="6" width="1" height="1" fill="black"/>
    <rect x="13.1494" y="7" width="1" height="1" fill="black"/>
    <rect x="14.1494" y="8" width="1" height="1" fill="black"/>
  </g>
  <defs>
    <clipPath id="clip0_169_6386">
      <rect width="20" height="20" fill="white" transform="translate(0.149414)"/>
    </clipPath>
  </defs>
</svg>