<svg width="25" height="25" viewBox="0 0 25 25" fill="none" xmlns="http://www.w3.org/2000/svg">
<g id="akar-icons:copy">
<g id="Group">
<g id="pixel-group">
<path id="Vector (Stroke)" fill-rule="evenodd" clip-rule="evenodd" d="M8.66335 2.47072C9.22596 1.90811 9.98902 1.59204 10.7847 1.59204H15.4697C16.2535 1.59214 17.0063 1.89903 17.5668 2.44704L20.8817 5.68892C21.1675 5.96828 21.3946 6.30194 21.5496 6.67029C21.7047 7.03864 21.7846 7.43426 21.7847 7.83392V16.592C21.7847 17.3877 21.4686 18.1508 20.906 18.7134C20.3434 19.276 19.5803 19.592 18.7847 19.592H10.7847C9.98902 19.592 9.22596 19.276 8.66335 18.7134C8.10074 18.1508 7.78467 17.3877 7.78467 16.592V4.59204C7.78467 3.79639 8.10074 3.03333 8.66335 2.47072ZM10.7847 3.59204C10.5195 3.59204 10.2651 3.6974 10.0776 3.88493C9.89002 4.07247 9.78467 4.32682 9.78467 4.59204V16.592C9.78467 16.8573 9.89002 17.1116 10.0776 17.2991C10.2651 17.4867 10.5195 17.592 10.7847 17.592H18.7847C19.0499 17.592 19.3042 17.4867 19.4918 17.2991C19.6793 17.1116 19.7847 16.8573 19.7847 16.592V7.83416C19.7847 7.83412 19.7847 7.8342 19.7847 7.83416C19.7846 7.70098 19.758 7.56903 19.7063 7.44629C19.6546 7.3235 19.5789 7.21228 19.4837 7.11916L16.1685 3.87704C16.1685 3.87702 16.1686 3.87706 16.1685 3.87704C15.9818 3.69444 15.7309 3.59211 15.4697 3.59204C15.4696 3.59204 15.4697 3.59204 15.4697 3.59204H10.7847Z" fill="white"/>
<g id="Pixel Vector (Stroke)">
<rect id="2-pixel" x="8.78467" y="1.92542" width="0.666667" height="0.666667" fill="white"/>
<rect id="2-pixel_2" x="9.45117" y="1.25873" width="0.666667" height="0.666667" fill="white"/>
<rect id="2-pixel_3" x="10.1177" y="1.25873" width="0.666667" height="0.666667" fill="white"/>
<rect id="2-pixel_4" x="10.7847" y="1.25873" width="0.666667" height="0.666667" fill="white"/>
<rect id="2-pixel_5" x="8.11768" y="1.92542" width="0.666667" height="0.666667" fill="white"/>
<rect id="2-pixel_6" x="16.7847" y="1.92542" width="0.666667" height="0.666667" fill="white"/>
<rect id="2-pixel_7" x="15.4512" y="1.25873" width="0.666667" height="0.666667" fill="white"/>
<rect id="2-pixel_8" x="16.1177" y="1.25873" width="0.666667" height="0.666667" fill="white"/>
<rect id="2-pixel_9" x="17.4512" y="1.92542" width="0.666667" height="0.666667" fill="white"/>
<rect id="2-pixel_10" x="17.4512" y="2.59204" width="0.666667" height="0.666667" fill="white"/>
<rect id="2-pixel_11" x="18.1177" y="3.25873" width="0.666667" height="0.666667" fill="white"/>
<rect id="2-pixel_12" x="18.7847" y="3.92542" width="0.666667" height="0.666667" fill="white"/>
<rect id="2-pixel_13" x="19.4512" y="4.59204" width="0.666667" height="0.666667" fill="white"/>
<rect id="2-pixel_14" x="20.1177" y="5.25873" width="0.666667" height="0.666667" fill="white"/>
<rect id="2-pixel_15" x="20.7847" y="5.25873" width="0.666667" height="0.666667" fill="white"/>
<rect id="2-pixel_16" x="20.7847" y="5.92542" width="0.666667" height="0.666667" fill="white"/>
<rect id="2-pixel_17" x="21.4512" y="6.59204" width="0.666667" height="0.666667" fill="white"/>
<rect id="2-pixel_18" x="21.4512" y="7.25873" width="0.666667" height="0.666667" fill="white"/>
<rect id="2-pixel_19" x="21.4512" y="16.592" width="0.666667" height="0.666667" fill="white"/>
<rect id="2-pixel_20" x="21.4512" y="17.2587" width="0.666667" height="0.666667" fill="white"/>
<rect id="2-pixel_21" x="20.7847" y="17.9254" width="0.666667" height="0.666667" fill="white"/>
<rect id="2-pixel_22" x="20.7847" y="18.592" width="0.666667" height="0.666667" fill="white"/>
<rect id="2-pixel_23" x="20.1177" y="18.592" width="0.666667" height="0.666667" fill="white"/>
<rect id="2-pixel_24" x="18.7847" y="19.2587" width="0.666667" height="0.666667" fill="white"/>
<rect id="2-pixel_25" x="19.4512" y="19.2587" width="0.666667" height="0.666667" fill="white"/>
<rect id="2-pixel_26" x="10.7847" y="19.2587" width="0.666667" height="0.666667" fill="white"/>
<rect id="2-pixel_27" x="11.4512" y="19.2587" width="0.666667" height="0.666667" fill="white"/>
<rect id="2-pixel_28" x="12.1177" y="19.2587" width="0.666667" height="0.666667" fill="white"/>
<rect id="2-pixel_29" x="12.7847" y="19.2587" width="0.666667" height="0.666667" fill="white"/>
<rect id="2-pixel_30" x="13.4512" y="19.2587" width="0.666667" height="0.666667" fill="white"/>
<rect id="2-pixel_31" x="14.1177" y="19.2587" width="0.666667" height="0.666667" fill="white"/>
<rect id="2-pixel_32" x="14.7847" y="19.2587" width="0.666667" height="0.666667" fill="white"/>
<rect id="2-pixel_33" x="15.4512" y="19.2587" width="0.666667" height="0.666667" fill="white"/>
<rect id="2-pixel_34" x="16.1177" y="19.2587" width="0.666667" height="0.666667" fill="white"/>
<rect id="2-pixel_35" x="16.7847" y="19.2587" width="0.666667" height="0.666667" fill="white"/>
<rect id="2-pixel_36" x="17.4512" y="19.2587" width="0.666667" height="0.666667" fill="white"/>
<rect id="2-pixel_37" x="18.1177" y="19.2587" width="0.666667" height="0.666667" fill="white"/>
<rect id="2-pixel_38" x="8.78467" y="18.592" width="0.666667" height="0.666667" fill="white"/>
<rect id="2-pixel_39" x="9.45117" y="19.2587" width="0.666667" height="0.666667" fill="white"/>
<rect id="2-pixel_40" x="10.1177" y="19.2587" width="0.666667" height="0.666667" fill="white"/>
<rect id="2-pixel_41" x="8.11768" y="18.592" width="0.666667" height="0.666667" fill="white"/>
<rect id="2-pixel_42" x="7.45117" y="16.592" width="0.666667" height="0.666667" fill="white"/>
<rect id="2-pixel_43" x="7.45117" y="17.2587" width="0.666667" height="0.666667" fill="white"/>
<rect id="2-pixel_44" x="8.11768" y="17.9254" width="0.666667" height="0.666667" fill="white"/>
<rect id="2-pixel_45" x="7.45117" y="4.59204" width="0.666667" height="0.666667" fill="white"/>
<rect id="2-pixel_46" x="7.45117" y="5.25873" width="0.666667" height="0.666667" fill="white"/>
<rect id="2-pixel_47" x="7.45117" y="5.92542" width="0.666667" height="0.666667" fill="white"/>
<rect id="2-pixel_48" x="7.45117" y="6.59204" width="0.666667" height="0.666667" fill="white"/>
<rect id="2-pixel_49" x="7.45117" y="7.25873" width="0.666667" height="0.666667" fill="white"/>
<rect id="2-pixel_50" x="7.45117" y="7.92542" width="0.666667" height="0.666667" fill="white"/>
<rect id="2-pixel_51" x="7.45117" y="8.59204" width="0.666667" height="0.666667" fill="white"/>
<rect id="2-pixel_52" x="7.45117" y="9.25873" width="0.666667" height="0.666667" fill="white"/>
<rect id="2-pixel_53" x="7.45117" y="9.92542" width="0.666667" height="0.666667" fill="white"/>
<rect id="2-pixel_54" x="7.45117" y="10.592" width="0.666667" height="0.666667" fill="white"/>
<rect id="2-pixel_55" x="7.45117" y="11.2587" width="0.666667" height="0.666667" fill="white"/>
<rect id="2-pixel_56" x="7.45117" y="11.9254" width="0.666667" height="0.666667" fill="white"/>
<rect id="2-pixel_57" x="7.45117" y="12.592" width="0.666667" height="0.666667" fill="white"/>
<rect id="2-pixel_58" x="7.45117" y="13.2587" width="0.666667" height="0.666667" fill="white"/>
<rect id="2-pixel_59" x="7.45117" y="13.9254" width="0.666667" height="0.666667" fill="white"/>
<rect id="2-pixel_60" x="7.45117" y="14.592" width="0.666667" height="0.666667" fill="white"/>
<rect id="2-pixel_61" x="7.45117" y="15.2587" width="0.666667" height="0.666667" fill="white"/>
<rect id="2-pixel_62" x="7.45117" y="15.9254" width="0.666667" height="0.666667" fill="white"/>
<rect id="2-pixel_63" x="8.11768" y="2.59204" width="0.666667" height="0.666667" fill="white"/>
<rect id="2-pixel_64" x="7.45117" y="3.25873" width="0.666667" height="0.666667" fill="white"/>
<rect id="2-pixel_65" x="7.45117" y="3.92542" width="0.666667" height="0.666667" fill="white"/>
<rect id="2-pixel_66" x="10.1177" y="3.25873" width="0.666667" height="0.666667" fill="white"/>
<rect id="2-pixel_67" x="9.45117" y="3.25873" width="0.666667" height="0.666667" fill="white"/>
<rect id="2-pixel_68" x="10.7847" y="3.25873" width="0.666667" height="0.666667" fill="white"/>
<rect id="2-pixel_69" x="9.45117" y="3.92542" width="0.666667" height="0.666667" fill="white"/>
<rect id="2-pixel_70" x="9.45117" y="4.59204" width="0.666667" height="0.666667" fill="white"/>
<rect id="2-pixel_71" x="9.45117" y="5.25873" width="0.666667" height="0.666667" fill="white"/>
<rect id="2-pixel_72" x="9.45117" y="5.92542" width="0.666667" height="0.666667" fill="white"/>
<rect id="2-pixel_73" x="9.45117" y="6.59204" width="0.666667" height="0.666667" fill="white"/>
<rect id="2-pixel_74" x="9.45117" y="7.25873" width="0.666667" height="0.666667" fill="white"/>
<rect id="2-pixel_75" x="9.45117" y="7.92542" width="0.666667" height="0.666667" fill="white"/>
<rect id="2-pixel_76" x="9.45117" y="8.59204" width="0.666667" height="0.666667" fill="white"/>
<rect id="2-pixel_77" x="9.45117" y="9.25873" width="0.666667" height="0.666667" fill="white"/>
<rect id="2-pixel_78" x="9.45117" y="9.92542" width="0.666667" height="0.666667" fill="white"/>
<rect id="2-pixel_79" x="9.45117" y="10.592" width="0.666667" height="0.666667" fill="white"/>
<rect id="2-pixel_80" x="9.45117" y="11.2587" width="0.666667" height="0.666667" fill="white"/>
<rect id="2-pixel_81" x="9.45117" y="11.9254" width="0.666667" height="0.666667" fill="white"/>
<rect id="2-pixel_82" x="9.45117" y="12.592" width="0.666667" height="0.666667" fill="white"/>
<rect id="2-pixel_83" x="9.45117" y="13.2587" width="0.666667" height="0.666667" fill="white"/>
<rect id="2-pixel_84" x="9.45117" y="13.9254" width="0.666667" height="0.666667" fill="white"/>
<rect id="2-pixel_85" x="9.45117" y="14.592" width="0.666667" height="0.666667" fill="white"/>
<rect id="2-pixel_86" x="9.45117" y="15.2587" width="0.666667" height="0.666667" fill="white"/>
<rect id="2-pixel_87" x="9.45117" y="15.9254" width="0.666667" height="0.666667" fill="white"/>
<rect id="2-pixel_88" x="9.45117" y="16.592" width="0.666667" height="0.666667" fill="white"/>
<rect id="2-pixel_89" x="9.45117" y="17.2587" width="0.666667" height="0.666667" fill="white"/>
<rect id="2-pixel_90" x="10.1177" y="17.2587" width="0.666667" height="0.666667" fill="white"/>
<rect id="2-pixel_91" x="10.7847" y="17.2587" width="0.666667" height="0.666667" fill="white"/>
<rect id="2-pixel_92" x="11.4512" y="17.2587" width="0.666667" height="0.666667" fill="white"/>
<rect id="2-pixel_93" x="12.1177" y="17.2587" width="0.666667" height="0.666667" fill="white"/>
<rect id="2-pixel_94" x="12.7847" y="17.2587" width="0.666667" height="0.666667" fill="white"/>
<rect id="2-pixel_95" x="13.4512" y="17.2587" width="0.666667" height="0.666667" fill="white"/>
<rect id="2-pixel_96" x="14.1177" y="17.2587" width="0.666667" height="0.666667" fill="white"/>
<rect id="2-pixel_97" x="14.7847" y="17.2587" width="0.666667" height="0.666667" fill="white"/>
<rect id="2-pixel_98" x="15.4512" y="17.2587" width="0.666667" height="0.666667" fill="white"/>
<rect id="2-pixel_99" x="16.1177" y="17.2587" width="0.666667" height="0.666667" fill="white"/>
<rect id="2-pixel_100" x="16.7847" y="17.2587" width="0.666667" height="0.666667" fill="white"/>
<rect id="2-pixel_101" x="17.4512" y="17.2587" width="0.666667" height="0.666667" fill="white"/>
<rect id="2-pixel_102" x="18.1177" y="17.2587" width="0.666667" height="0.666667" fill="white"/>
<rect id="2-pixel_103" x="18.7847" y="17.2587" width="0.666667" height="0.666667" fill="white"/>
<rect id="2-pixel_104" x="19.4512" y="17.2587" width="0.666667" height="0.666667" fill="white"/>
<rect id="2-pixel_105" x="19.4512" y="16.592" width="0.666667" height="0.666667" fill="white"/>
<rect id="2-pixel_106" x="19.4512" y="7.92542" width="0.666667" height="0.666667" fill="white"/>
<rect id="2-pixel_107" x="19.4512" y="8.59204" width="0.666667" height="0.666667" fill="white"/>
<rect id="2-pixel_108" x="19.4512" y="9.25873" width="0.666667" height="0.666667" fill="white"/>
<rect id="2-pixel_109" x="19.4512" y="9.92542" width="0.666667" height="0.666667" fill="white"/>
<rect id="2-pixel_110" x="19.4512" y="10.592" width="0.666667" height="0.666667" fill="white"/>
<rect id="2-pixel_111" x="19.4512" y="11.2587" width="0.666667" height="0.666667" fill="white"/>
<rect id="2-pixel_112" x="19.4512" y="11.9254" width="0.666667" height="0.666667" fill="white"/>
<rect id="2-pixel_113" x="19.4512" y="12.592" width="0.666667" height="0.666667" fill="white"/>
<rect id="2-pixel_114" x="19.4512" y="13.2587" width="0.666667" height="0.666667" fill="white"/>
<rect id="2-pixel_115" x="19.4512" y="13.9254" width="0.666667" height="0.666667" fill="white"/>
<rect id="2-pixel_116" x="19.4512" y="14.592" width="0.666667" height="0.666667" fill="white"/>
<rect id="2-pixel_117" x="19.4512" y="15.2587" width="0.666667" height="0.666667" fill="white"/>
<rect id="2-pixel_118" x="19.4512" y="15.9254" width="0.666667" height="0.666667" fill="white"/>
<rect id="2-pixel_119" x="19.4512" y="7.25873" width="0.666667" height="0.666667" fill="white"/>
<rect id="2-pixel_120" x="19.4512" y="6.59204" width="0.666667" height="0.666667" fill="white"/>
<rect id="2-pixel_121" x="16.1177" y="3.92542" width="0.666667" height="0.666667" fill="white"/>
<rect id="2-pixel_122" x="16.7847" y="4.59204" width="0.666667" height="0.666667" fill="white"/>
<rect id="2-pixel_123" x="17.4512" y="5.25873" width="0.666667" height="0.666667" fill="white"/>
<rect id="2-pixel_124" x="18.1177" y="5.92542" width="0.666667" height="0.666667" fill="white"/>
<rect id="2-pixel_125" x="18.7847" y="6.59204" width="0.666667" height="0.666667" fill="white"/>
<rect id="2-pixel_126" x="16.1177" y="3.25873" width="0.666667" height="0.666667" fill="white"/>
<rect id="2-pixel_127" x="15.4512" y="3.25873" width="0.666667" height="0.666667" fill="white"/>
<rect id="2-pixel_128" x="11.4512" y="3.25873" width="0.666667" height="0.666667" fill="white"/>
<rect id="2-pixel_129" x="12.1177" y="3.25873" width="0.666667" height="0.666667" fill="white"/>
<rect id="2-pixel_130" x="12.7847" y="3.25873" width="0.666667" height="0.666667" fill="white"/>
<rect id="2-pixel_131" x="13.4512" y="3.25873" width="0.666667" height="0.666667" fill="white"/>
<rect id="2-pixel_132" x="14.1177" y="3.25873" width="0.666667" height="0.666667" fill="white"/>
<rect id="2-pixel_133" x="14.7847" y="3.25873" width="0.666667" height="0.666667" fill="white"/>
<rect id="2-pixel_134" x="11.4512" y="1.25873" width="0.666667" height="0.666667" fill="white"/>
<rect id="2-pixel_135" x="12.1177" y="1.25873" width="0.666667" height="0.666667" fill="white"/>
<rect id="2-pixel_136" x="12.7847" y="1.25873" width="0.666667" height="0.666667" fill="white"/>
<rect id="2-pixel_137" x="13.4512" y="1.25873" width="0.666667" height="0.666667" fill="white"/>
<rect id="2-pixel_138" x="14.1177" y="1.25873" width="0.666667" height="0.666667" fill="white"/>
<rect id="2-pixel_139" x="14.7847" y="1.25873" width="0.666667" height="0.666667" fill="white"/>
<rect id="2-pixel_140" x="21.4512" y="7.92542" width="0.666667" height="0.666667" fill="white"/>
<rect id="2-pixel_141" x="21.4512" y="8.59204" width="0.666667" height="0.666667" fill="white"/>
<rect id="2-pixel_142" x="21.4512" y="9.25873" width="0.666667" height="0.666667" fill="white"/>
<rect id="2-pixel_143" x="21.4512" y="9.92542" width="0.666667" height="0.666667" fill="white"/>
<rect id="2-pixel_144" x="21.4512" y="10.592" width="0.666667" height="0.666667" fill="white"/>
<rect id="2-pixel_145" x="21.4512" y="11.2587" width="0.666667" height="0.666667" fill="white"/>
<rect id="2-pixel_146" x="21.4512" y="11.9254" width="0.666667" height="0.666667" fill="white"/>
<rect id="2-pixel_147" x="21.4512" y="12.592" width="0.666667" height="0.666667" fill="white"/>
<rect id="2-pixel_148" x="21.4512" y="13.2587" width="0.666667" height="0.666667" fill="white"/>
<rect id="2-pixel_149" x="21.4512" y="13.9254" width="0.666667" height="0.666667" fill="white"/>
<rect id="2-pixel_150" x="21.4512" y="14.592" width="0.666667" height="0.666667" fill="white"/>
<rect id="2-pixel_151" x="21.4512" y="15.2587" width="0.666667" height="0.666667" fill="white"/>
<rect id="2-pixel_152" x="21.4512" y="15.9254" width="0.666667" height="0.666667" fill="white"/>
</g>
</g>
<g id="pixel-group_2">
<path id="Vector (Stroke)_2" fill-rule="evenodd" clip-rule="evenodd" d="M6.78467 8.59204C6.51945 8.59204 6.2651 8.6974 6.07756 8.88493C5.89002 9.07247 5.78467 9.32682 5.78467 9.59204V20.592C5.78467 20.8573 5.89002 21.1116 6.07756 21.2991C6.2651 21.4867 6.51945 21.592 6.78467 21.592H14.7847C15.0499 21.592 15.3042 21.4867 15.4918 21.2991C15.6793 21.1116 15.7847 20.8573 15.7847 20.592V18.592C15.7847 18.0398 16.2324 17.592 16.7847 17.592C17.337 17.592 17.7847 18.0398 17.7847 18.592V20.592C17.7847 21.3877 17.4686 22.1508 16.906 22.7134C16.3434 23.276 15.5803 23.592 14.7847 23.592H6.78467C5.98902 23.592 5.22596 23.276 4.66335 22.7134C4.10074 22.1508 3.78467 21.3877 3.78467 20.592V9.59204C3.78467 8.79639 4.10074 8.03333 4.66335 7.47072C5.22596 6.90811 5.98902 6.59204 6.78467 6.59204H8.78467C9.33695 6.59204 9.78467 7.03976 9.78467 7.59204C9.78467 8.14433 9.33695 8.59204 8.78467 8.59204H6.78467Z" fill="white"/>
<g id="Pixel Vector (Stroke)_2">
<rect id="2-pixel_153" x="6.11768" y="8.59204" width="0.666667" height="0.666667" fill="white"/>
<rect id="2-pixel_154" x="5.45117" y="8.59204" width="0.666667" height="0.666667" fill="white"/>
<rect id="2-pixel_155" x="6.78467" y="8.59204" width="0.666667" height="0.666667" fill="white"/>
<rect id="2-pixel_156" x="5.45117" y="9.25873" width="0.666667" height="0.666667" fill="white"/>
<rect id="2-pixel_157" x="5.45117" y="9.92535" width="0.666667" height="0.666667" fill="white"/>
<rect id="2-pixel_158" x="5.45117" y="10.592" width="0.666667" height="0.666667" fill="white"/>
<rect id="2-pixel_159" x="5.45117" y="11.2587" width="0.666667" height="0.666667" fill="white"/>
<rect id="2-pixel_160" x="5.45117" y="11.9254" width="0.666667" height="0.666667" fill="white"/>
<rect id="2-pixel_161" x="5.45117" y="12.592" width="0.666667" height="0.666667" fill="white"/>
<rect id="2-pixel_162" x="5.45117" y="13.2587" width="0.666667" height="0.666667" fill="white"/>
<rect id="2-pixel_163" x="5.45117" y="13.9254" width="0.666667" height="0.666667" fill="white"/>
<rect id="2-pixel_164" x="5.45117" y="14.592" width="0.666667" height="0.666667" fill="white"/>
<rect id="2-pixel_165" x="5.45117" y="15.2587" width="0.666667" height="0.666667" fill="white"/>
<rect id="2-pixel_166" x="5.45117" y="15.9254" width="0.666667" height="0.666667" fill="white"/>
<rect id="2-pixel_167" x="5.45117" y="16.592" width="0.666667" height="0.666667" fill="white"/>
<rect id="2-pixel_168" x="5.45117" y="17.2587" width="0.666667" height="0.666667" fill="white"/>
<rect id="2-pixel_169" x="5.45117" y="17.9254" width="0.666667" height="0.666667" fill="white"/>
<rect id="2-pixel_170" x="5.45117" y="18.592" width="0.666667" height="0.666667" fill="white"/>
<rect id="2-pixel_171" x="5.45117" y="19.2587" width="0.666667" height="0.666667" fill="white"/>
<rect id="2-pixel_172" x="5.45117" y="19.9254" width="0.666667" height="0.666667" fill="white"/>
<rect id="2-pixel_173" x="5.45117" y="20.592" width="0.666667" height="0.666667" fill="white"/>
<rect id="2-pixel_174" x="5.45117" y="21.2587" width="0.666667" height="0.666667" fill="white"/>
<rect id="2-pixel_175" x="6.11768" y="21.2587" width="0.666667" height="0.666667" fill="white"/>
<rect id="2-pixel_176" x="6.78467" y="21.2587" width="0.666667" height="0.666667" fill="white"/>
<rect id="2-pixel_177" x="7.45117" y="21.2587" width="0.666667" height="0.666667" fill="white"/>
<rect id="2-pixel_178" x="8.11768" y="21.2587" width="0.666667" height="0.666667" fill="white"/>
<rect id="2-pixel_179" x="8.78467" y="21.2587" width="0.666667" height="0.666667" fill="white"/>
<rect id="2-pixel_180" x="9.45117" y="21.2587" width="0.666667" height="0.666667" fill="white"/>
<rect id="2-pixel_181" x="10.1177" y="21.2587" width="0.666667" height="0.666667" fill="white"/>
<rect id="2-pixel_182" x="10.7847" y="21.2587" width="0.666667" height="0.666667" fill="white"/>
<rect id="2-pixel_183" x="11.4512" y="21.2587" width="0.666667" height="0.666667" fill="white"/>
<rect id="2-pixel_184" x="12.1177" y="21.2587" width="0.666667" height="0.666667" fill="white"/>
<rect id="2-pixel_185" x="12.7847" y="21.2587" width="0.666667" height="0.666667" fill="white"/>
<rect id="2-pixel_186" x="13.4512" y="21.2587" width="0.666667" height="0.666667" fill="white"/>
<rect id="2-pixel_187" x="14.1177" y="21.2587" width="0.666667" height="0.666667" fill="white"/>
<rect id="2-pixel_188" x="14.7847" y="21.2587" width="0.666667" height="0.666667" fill="white"/>
<rect id="2-pixel_189" x="15.4512" y="21.2587" width="0.666667" height="0.666667" fill="white"/>
<rect id="2-pixel_190" x="15.4512" y="20.592" width="0.666667" height="0.666667" fill="white"/>
<rect id="2-pixel_191" x="15.4512" y="18.592" width="0.666667" height="0.666667" fill="white"/>
<rect id="2-pixel_192" x="15.4512" y="19.2587" width="0.666667" height="0.666667" fill="white"/>
<rect id="2-pixel_193" x="15.4512" y="19.9254" width="0.666667" height="0.666667" fill="white"/>
<rect id="2-pixel_194" x="16.1177" y="17.2587" width="0.666667" height="0.666667" fill="white"/>
<rect id="2-pixel_195" x="15.4512" y="17.9254" width="0.666667" height="0.666667" fill="white"/>
<rect id="2-pixel_196" x="16.7847" y="17.2587" width="0.666667" height="0.666667" fill="white"/>
<rect id="2-pixel_197" x="17.4512" y="17.9254" width="0.666667" height="0.666667" fill="white"/>
<rect id="2-pixel_198" x="17.4512" y="18.592" width="0.666667" height="0.666667" fill="white"/>
<rect id="2-pixel_199" x="17.4512" y="19.2587" width="0.666667" height="0.666667" fill="white"/>
<rect id="2-pixel_200" x="17.4512" y="19.9254" width="0.666667" height="0.666667" fill="white"/>
<rect id="2-pixel_201" x="17.4512" y="20.592" width="0.666667" height="0.666667" fill="white"/>
<rect id="2-pixel_202" x="17.4512" y="21.2587" width="0.666667" height="0.666667" fill="white"/>
<rect id="2-pixel_203" x="16.7847" y="21.9254" width="0.666667" height="0.666667" fill="white"/>
<rect id="2-pixel_204" x="16.7847" y="22.592" width="0.666667" height="0.666667" fill="white"/>
<rect id="2-pixel_205" x="16.1177" y="22.592" width="0.666667" height="0.666667" fill="white"/>
<rect id="2-pixel_206" x="14.7847" y="23.2587" width="0.666667" height="0.666667" fill="white"/>
<rect id="2-pixel_207" x="15.4512" y="23.2587" width="0.666667" height="0.666667" fill="white"/>
<rect id="2-pixel_208" x="6.78467" y="23.2587" width="0.666667" height="0.666667" fill="white"/>
<rect id="2-pixel_209" x="7.45117" y="23.2587" width="0.666667" height="0.666667" fill="white"/>
<rect id="2-pixel_210" x="8.11768" y="23.2587" width="0.666667" height="0.666667" fill="white"/>
<rect id="2-pixel_211" x="8.78467" y="23.2587" width="0.666667" height="0.666667" fill="white"/>
<rect id="2-pixel_212" x="9.45117" y="23.2587" width="0.666667" height="0.666667" fill="white"/>
<rect id="2-pixel_213" x="10.1177" y="23.2587" width="0.666667" height="0.666667" fill="white"/>
<rect id="2-pixel_214" x="10.7847" y="23.2587" width="0.666667" height="0.666667" fill="white"/>
<rect id="2-pixel_215" x="11.4512" y="23.2587" width="0.666667" height="0.666667" fill="white"/>
<rect id="2-pixel_216" x="12.1177" y="23.2587" width="0.666667" height="0.666667" fill="white"/>
<rect id="2-pixel_217" x="12.7847" y="23.2587" width="0.666667" height="0.666667" fill="white"/>
<rect id="2-pixel_218" x="13.4512" y="23.2587" width="0.666667" height="0.666667" fill="white"/>
<rect id="2-pixel_219" x="14.1177" y="23.2587" width="0.666667" height="0.666667" fill="white"/>
<rect id="2-pixel_220" x="4.78467" y="22.592" width="0.666667" height="0.666667" fill="white"/>
<rect id="2-pixel_221" x="5.45117" y="23.2587" width="0.666667" height="0.666667" fill="white"/>
<rect id="2-pixel_222" x="6.11768" y="23.2587" width="0.666667" height="0.666667" fill="white"/>
<rect id="2-pixel_223" x="4.11768" y="22.592" width="0.666667" height="0.666667" fill="white"/>
<rect id="2-pixel_224" x="3.45117" y="20.592" width="0.666667" height="0.666667" fill="white"/>
<rect id="2-pixel_225" x="3.45117" y="21.2587" width="0.666667" height="0.666667" fill="white"/>
<rect id="2-pixel_226" x="4.11768" y="21.9254" width="0.666667" height="0.666667" fill="white"/>
<rect id="2-pixel_227" x="3.45117" y="9.25873" width="0.666667" height="0.666667" fill="white"/>
<rect id="2-pixel_228" x="3.45117" y="9.92535" width="0.666667" height="0.666667" fill="white"/>
<rect id="2-pixel_229" x="3.45117" y="10.592" width="0.666667" height="0.666667" fill="white"/>
<rect id="2-pixel_230" x="3.45117" y="11.2587" width="0.666667" height="0.666667" fill="white"/>
<rect id="2-pixel_231" x="3.45117" y="11.9254" width="0.666667" height="0.666667" fill="white"/>
<rect id="2-pixel_232" x="3.45117" y="12.592" width="0.666667" height="0.666667" fill="white"/>
<rect id="2-pixel_233" x="3.45117" y="13.2587" width="0.666667" height="0.666667" fill="white"/>
<rect id="2-pixel_234" x="3.45117" y="13.9254" width="0.666667" height="0.666667" fill="white"/>
<rect id="2-pixel_235" x="3.45117" y="14.592" width="0.666667" height="0.666667" fill="white"/>
<rect id="2-pixel_236" x="3.45117" y="15.2587" width="0.666667" height="0.666667" fill="white"/>
<rect id="2-pixel_237" x="3.45117" y="15.9254" width="0.666667" height="0.666667" fill="white"/>
<rect id="2-pixel_238" x="3.45117" y="16.592" width="0.666667" height="0.666667" fill="white"/>
<rect id="2-pixel_239" x="3.45117" y="17.2587" width="0.666667" height="0.666667" fill="white"/>
<rect id="2-pixel_240" x="3.45117" y="17.9254" width="0.666667" height="0.666667" fill="white"/>
<rect id="2-pixel_241" x="3.45117" y="18.592" width="0.666667" height="0.666667" fill="white"/>
<rect id="2-pixel_242" x="3.45117" y="19.2587" width="0.666667" height="0.666667" fill="white"/>
<rect id="2-pixel_243" x="3.45117" y="19.9254" width="0.666667" height="0.666667" fill="white"/>
<rect id="2-pixel_244" x="4.11768" y="7.25873" width="0.666667" height="0.666667" fill="white"/>
<rect id="2-pixel_245" x="3.45117" y="7.92535" width="0.666667" height="0.666667" fill="white"/>
<rect id="2-pixel_246" x="3.45117" y="8.59204" width="0.666667" height="0.666667" fill="white"/>
<rect id="2-pixel_247" x="4.78467" y="6.59204" width="0.666667" height="0.666667" fill="white"/>
<rect id="2-pixel_248" x="5.45117" y="6.59204" width="0.666667" height="0.666667" fill="white"/>
<rect id="2-pixel_249" x="6.11768" y="6.59204" width="0.666667" height="0.666667" fill="white"/>
<rect id="2-pixel_250" x="6.78467" y="6.59204" width="0.666667" height="0.666667" fill="white"/>
<rect id="2-pixel_251" x="7.45117" y="6.59204" width="0.666667" height="0.666667" fill="white"/>
<rect id="2-pixel_252" x="8.11768" y="6.59204" width="0.666667" height="0.666667" fill="white"/>
<rect id="2-pixel_253" x="8.78467" y="6.59204" width="0.666667" height="0.666667" fill="white"/>
<rect id="2-pixel_254" x="9.45117" y="6.59204" width="0.666667" height="0.666667" fill="white"/>
<rect id="2-pixel_255" x="9.45117" y="7.25873" width="0.666667" height="0.666667" fill="white"/>
<rect id="2-pixel_256" x="9.45117" y="7.92535" width="0.666667" height="0.666667" fill="white"/>
<rect id="2-pixel_257" x="8.78467" y="7.92535" width="0.666667" height="0.666667" fill="white"/>
<rect id="2-pixel_258" x="8.78467" y="8.59204" width="0.666667" height="0.666667" fill="white"/>
<rect id="2-pixel_259" x="7.45117" y="8.59204" width="0.666667" height="0.666667" fill="white"/>
<rect id="2-pixel_260" x="8.11768" y="8.59204" width="0.666667" height="0.666667" fill="white"/>
</g>
</g>
</g>
</g>
</svg>
