<svg width="20" height="24" viewBox="0 0 20 24" fill="none" xmlns="http://www.w3.org/2000/svg">
<path fill-rule="evenodd" clip-rule="evenodd" d="M6.21218 2.21205C6.77479 1.64944 7.53785 1.33337 8.3335 1.33337H13.0185C13.8024 1.33347 14.5552 1.64036 15.1156 2.18837L18.4305 5.43025C18.7163 5.70962 18.9434 6.04327 19.0985 6.41162C19.2535 6.77997 19.3334 7.17559 19.3335 7.57525V16.3334C19.3335 17.129 19.0174 17.8921 18.4548 18.4547C17.8922 19.0173 17.1291 19.3334 16.3335 19.3334H8.3335C7.53785 19.3334 6.77478 19.0173 6.21218 18.4547C5.64957 17.8921 5.3335 17.129 5.3335 16.3334V4.33337C5.3335 3.53772 5.64957 2.77466 6.21218 2.21205ZM8.3335 3.33337C8.06828 3.33337 7.81393 3.43873 7.62639 3.62627C7.43885 3.8138 7.3335 4.06816 7.3335 4.33337V16.3334C7.3335 16.5986 7.43885 16.8529 7.62639 17.0405C7.81393 17.228 8.06828 17.3334 8.3335 17.3334H16.3335C16.5987 17.3334 16.8531 17.228 17.0406 17.0405C17.2281 16.8529 17.3335 16.5986 17.3335 16.3334V7.5755C17.3335 7.57546 17.3335 7.57554 17.3335 7.5755C17.3335 7.44232 17.3068 7.31037 17.2552 7.18762C17.2035 7.06483 17.1278 6.95361 17.0325 6.8605L13.7174 3.61837C13.7174 3.61835 13.7174 3.6184 13.7174 3.61837C13.5306 3.43577 13.2797 3.33344 13.0185 3.33337C13.0185 3.33337 13.0185 3.33337 13.0185 3.33337H8.3335Z" fill="black"/>
<path d="M17.3335 7.5755V16.3334C17.3335 16.5986 17.2281 16.8529 17.0406 17.0405C16.8531 17.228 16.5987 17.3334 16.3335 17.3334H8.3335C8.06828 17.3334 7.81393 17.228 7.62639 17.0405C7.43885 16.8529 7.3335 16.5986 7.3335 16.3334V4.33337C7.3335 4.06816 7.43885 3.8138 7.62639 3.62627C7.81393 3.43873 8.06828 3.33337 8.3335 3.33337H13.0185M17.3335 7.5755C17.3335 7.57554 17.3335 7.57546 17.3335 7.5755ZM17.3335 7.5755C17.3335 7.44232 17.3068 7.31037 17.2552 7.18762C17.2035 7.06483 17.1278 6.95361 17.0325 6.8605L13.7174 3.61837M13.7174 3.61837C13.7174 3.6184 13.7173 3.61835 13.7174 3.61837ZM13.7174 3.61837C13.5306 3.43577 13.2797 3.33344 13.0185 3.33337M13.0185 3.33337C13.0185 3.33337 13.0185 3.33337 13.0185 3.33337ZM8.3335 1.33337C7.53785 1.33337 6.77479 1.64944 6.21218 2.21205C5.64957 2.77466 5.3335 3.53772 5.3335 4.33337V16.3334C5.3335 17.129 5.64957 17.8921 6.21218 18.4547C6.77478 19.0173 7.53785 19.3334 8.3335 19.3334H16.3335C17.1291 19.3334 17.8922 19.0173 18.4548 18.4547C19.0174 17.8921 19.3335 17.129 19.3335 16.3334V7.57525C19.3334 7.17559 19.2535 6.77997 19.0985 6.41162C18.9434 6.04327 18.7163 5.70962 18.4305 5.43025L15.1156 2.18837C14.5552 1.64036 13.8024 1.33347 13.0185 1.33337H8.3335Z" stroke="black" stroke-linecap="round" stroke-linejoin="round"/>
<rect x="6.50016" y="1.83329" width="0.333333" height="0.333333" fill="black" stroke="black" stroke-width="0.333333"/>
<rect x="7.16667" y="1.16667" width="0.333333" height="0.333333" fill="black" stroke="black" stroke-width="0.333333"/>
<rect x="7.83317" y="1.16667" width="0.333333" height="0.333333" fill="black" stroke="black" stroke-width="0.333333"/>
<rect x="8.50016" y="1.16667" width="0.333333" height="0.333333" fill="black" stroke="black" stroke-width="0.333333"/>
<rect x="5.83317" y="1.83329" width="0.333333" height="0.333333" fill="black" stroke="black" stroke-width="0.333333"/>
<rect x="14.5002" y="1.83329" width="0.333333" height="0.333333" fill="black" stroke="black" stroke-width="0.333333"/>
<rect x="13.1667" y="1.16667" width="0.333333" height="0.333333" fill="black" stroke="black" stroke-width="0.333333"/>
<rect x="13.8332" y="1.16667" width="0.333333" height="0.333333" fill="black" stroke="black" stroke-width="0.333333"/>
<rect x="15.1667" y="1.83329" width="0.333333" height="0.333333" fill="black" stroke="black" stroke-width="0.333333"/>
<rect x="15.1667" y="2.50004" width="0.333333" height="0.333333" fill="black" stroke="black" stroke-width="0.333333"/>
<rect x="15.8332" y="3.16667" width="0.333333" height="0.333333" fill="black" stroke="black" stroke-width="0.333333"/>
<rect x="16.5002" y="3.83329" width="0.333333" height="0.333333" fill="black" stroke="black" stroke-width="0.333333"/>
<rect x="17.1667" y="4.50004" width="0.333333" height="0.333333" fill="black" stroke="black" stroke-width="0.333333"/>
<rect x="17.8332" y="5.16667" width="0.333333" height="0.333333" fill="black" stroke="black" stroke-width="0.333333"/>
<rect x="18.5002" y="5.16667" width="0.333333" height="0.333333" fill="black" stroke="black" stroke-width="0.333333"/>
<rect x="18.5002" y="5.83329" width="0.333333" height="0.333333" fill="black" stroke="black" stroke-width="0.333333"/>
<rect x="19.1667" y="6.50004" width="0.333333" height="0.333333" fill="black" stroke="black" stroke-width="0.333333"/>
<rect x="19.1667" y="7.16667" width="0.333333" height="0.333333" fill="black" stroke="black" stroke-width="0.333333"/>
<rect x="19.1667" y="16.5" width="0.333333" height="0.333333" fill="black" stroke="black" stroke-width="0.333333"/>
<rect x="19.1667" y="17.1667" width="0.333333" height="0.333333" fill="black" stroke="black" stroke-width="0.333333"/>
<rect x="18.5002" y="17.8333" width="0.333333" height="0.333333" fill="black" stroke="black" stroke-width="0.333333"/>
<rect x="18.5002" y="18.5" width="0.333333" height="0.333333" fill="black" stroke="black" stroke-width="0.333333"/>
<rect x="17.8332" y="18.5" width="0.333333" height="0.333333" fill="black" stroke="black" stroke-width="0.333333"/>
<rect x="16.5002" y="19.1667" width="0.333333" height="0.333333" fill="black" stroke="black" stroke-width="0.333333"/>
<rect x="17.1667" y="19.1667" width="0.333333" height="0.333333" fill="black" stroke="black" stroke-width="0.333333"/>
<rect x="8.50016" y="19.1667" width="0.333333" height="0.333333" fill="black" stroke="black" stroke-width="0.333333"/>
<rect x="9.16667" y="19.1667" width="0.333333" height="0.333333" fill="black" stroke="black" stroke-width="0.333333"/>
<rect x="9.83317" y="19.1667" width="0.333333" height="0.333333" fill="black" stroke="black" stroke-width="0.333333"/>
<rect x="10.5002" y="19.1667" width="0.333333" height="0.333333" fill="black" stroke="black" stroke-width="0.333333"/>
<rect x="11.1667" y="19.1667" width="0.333333" height="0.333333" fill="black" stroke="black" stroke-width="0.333333"/>
<rect x="11.8332" y="19.1667" width="0.333333" height="0.333333" fill="black" stroke="black" stroke-width="0.333333"/>
<rect x="12.5002" y="19.1667" width="0.333333" height="0.333333" fill="black" stroke="black" stroke-width="0.333333"/>
<rect x="13.1667" y="19.1667" width="0.333333" height="0.333333" fill="black" stroke="black" stroke-width="0.333333"/>
<rect x="13.8332" y="19.1667" width="0.333333" height="0.333333" fill="black" stroke="black" stroke-width="0.333333"/>
<rect x="14.5002" y="19.1667" width="0.333333" height="0.333333" fill="black" stroke="black" stroke-width="0.333333"/>
<rect x="15.1667" y="19.1667" width="0.333333" height="0.333333" fill="black" stroke="black" stroke-width="0.333333"/>
<rect x="15.8332" y="19.1667" width="0.333333" height="0.333333" fill="black" stroke="black" stroke-width="0.333333"/>
<rect x="6.50016" y="18.5" width="0.333333" height="0.333333" fill="black" stroke="black" stroke-width="0.333333"/>
<rect x="7.16667" y="19.1667" width="0.333333" height="0.333333" fill="black" stroke="black" stroke-width="0.333333"/>
<rect x="7.83317" y="19.1667" width="0.333333" height="0.333333" fill="black" stroke="black" stroke-width="0.333333"/>
<rect x="5.83317" y="18.5" width="0.333333" height="0.333333" fill="black" stroke="black" stroke-width="0.333333"/>
<rect x="5.16667" y="16.5" width="0.333333" height="0.333333" fill="black" stroke="black" stroke-width="0.333333"/>
<rect x="5.16667" y="17.1667" width="0.333333" height="0.333333" fill="black" stroke="black" stroke-width="0.333333"/>
<rect x="5.83317" y="17.8333" width="0.333333" height="0.333333" fill="black" stroke="black" stroke-width="0.333333"/>
<rect x="5.16667" y="4.50004" width="0.333333" height="0.333333" fill="black" stroke="black" stroke-width="0.333333"/>
<rect x="5.16667" y="5.16667" width="0.333333" height="0.333333" fill="black" stroke="black" stroke-width="0.333333"/>
<rect x="5.16667" y="5.83329" width="0.333333" height="0.333333" fill="black" stroke="black" stroke-width="0.333333"/>
<rect x="5.16667" y="6.50004" width="0.333333" height="0.333333" fill="black" stroke="black" stroke-width="0.333333"/>
<rect x="5.16667" y="7.16667" width="0.333333" height="0.333333" fill="black" stroke="black" stroke-width="0.333333"/>
<rect x="5.16667" y="7.83329" width="0.333333" height="0.333333" fill="black" stroke="black" stroke-width="0.333333"/>
<rect x="5.16667" y="8.50004" width="0.333333" height="0.333333" fill="black" stroke="black" stroke-width="0.333333"/>
<rect x="5.16667" y="9.16667" width="0.333333" height="0.333333" fill="black" stroke="black" stroke-width="0.333333"/>
<rect x="5.16667" y="9.83329" width="0.333333" height="0.333333" fill="black" stroke="black" stroke-width="0.333333"/>
<rect x="5.16667" y="10.5" width="0.333333" height="0.333333" fill="black" stroke="black" stroke-width="0.333333"/>
<rect x="5.16667" y="11.1667" width="0.333333" height="0.333333" fill="black" stroke="black" stroke-width="0.333333"/>
<rect x="5.16667" y="11.8333" width="0.333333" height="0.333333" fill="black" stroke="black" stroke-width="0.333333"/>
<rect x="5.16667" y="12.5" width="0.333333" height="0.333333" fill="black" stroke="black" stroke-width="0.333333"/>
<rect x="5.16667" y="13.1667" width="0.333333" height="0.333333" fill="black" stroke="black" stroke-width="0.333333"/>
<rect x="5.16667" y="13.8333" width="0.333333" height="0.333333" fill="black" stroke="black" stroke-width="0.333333"/>
<rect x="5.16667" y="14.5" width="0.333333" height="0.333333" fill="black" stroke="black" stroke-width="0.333333"/>
<rect x="5.16667" y="15.1667" width="0.333333" height="0.333333" fill="black" stroke="black" stroke-width="0.333333"/>
<rect x="5.16667" y="15.8333" width="0.333333" height="0.333333" fill="black" stroke="black" stroke-width="0.333333"/>
<rect x="5.83317" y="2.50004" width="0.333333" height="0.333333" fill="black" stroke="black" stroke-width="0.333333"/>
<rect x="5.16667" y="3.16667" width="0.333333" height="0.333333" fill="black" stroke="black" stroke-width="0.333333"/>
<rect x="5.16667" y="3.83329" width="0.333333" height="0.333333" fill="black" stroke="black" stroke-width="0.333333"/>
<rect x="7.83317" y="3.16667" width="0.333333" height="0.333333" fill="black" stroke="black" stroke-width="0.333333"/>
<rect x="7.16667" y="3.16667" width="0.333333" height="0.333333" fill="black" stroke="black" stroke-width="0.333333"/>
<rect x="8.50016" y="3.16667" width="0.333333" height="0.333333" fill="black" stroke="black" stroke-width="0.333333"/>
<rect x="7.16667" y="3.83329" width="0.333333" height="0.333333" fill="black" stroke="black" stroke-width="0.333333"/>
<rect x="7.16667" y="4.50004" width="0.333333" height="0.333333" fill="black" stroke="black" stroke-width="0.333333"/>
<rect x="7.16667" y="5.16667" width="0.333333" height="0.333333" fill="black" stroke="black" stroke-width="0.333333"/>
<rect x="7.16667" y="5.83329" width="0.333333" height="0.333333" fill="black" stroke="black" stroke-width="0.333333"/>
<rect x="7.16667" y="6.50004" width="0.333333" height="0.333333" fill="black" stroke="black" stroke-width="0.333333"/>
<rect x="7.16667" y="7.16667" width="0.333333" height="0.333333" fill="black" stroke="black" stroke-width="0.333333"/>
<rect x="7.16667" y="7.83329" width="0.333333" height="0.333333" fill="black" stroke="black" stroke-width="0.333333"/>
<rect x="7.16667" y="8.50004" width="0.333333" height="0.333333" fill="black" stroke="black" stroke-width="0.333333"/>
<rect x="7.16667" y="9.16667" width="0.333333" height="0.333333" fill="black" stroke="black" stroke-width="0.333333"/>
<rect x="7.16667" y="9.83329" width="0.333333" height="0.333333" fill="black" stroke="black" stroke-width="0.333333"/>
<rect x="7.16667" y="10.5" width="0.333333" height="0.333333" fill="black" stroke="black" stroke-width="0.333333"/>
<rect x="7.16667" y="11.1667" width="0.333333" height="0.333333" fill="black" stroke="black" stroke-width="0.333333"/>
<rect x="7.16667" y="11.8333" width="0.333333" height="0.333333" fill="black" stroke="black" stroke-width="0.333333"/>
<rect x="7.16667" y="12.5" width="0.333333" height="0.333333" fill="black" stroke="black" stroke-width="0.333333"/>
<rect x="7.16667" y="13.1667" width="0.333333" height="0.333333" fill="black" stroke="black" stroke-width="0.333333"/>
<rect x="7.16667" y="13.8333" width="0.333333" height="0.333333" fill="black" stroke="black" stroke-width="0.333333"/>
<rect x="7.16667" y="14.5" width="0.333333" height="0.333333" fill="black" stroke="black" stroke-width="0.333333"/>
<rect x="7.16667" y="15.1667" width="0.333333" height="0.333333" fill="black" stroke="black" stroke-width="0.333333"/>
<rect x="7.16667" y="15.8333" width="0.333333" height="0.333333" fill="black" stroke="black" stroke-width="0.333333"/>
<rect x="7.16667" y="16.5" width="0.333333" height="0.333333" fill="black" stroke="black" stroke-width="0.333333"/>
<rect x="7.16667" y="17.1667" width="0.333333" height="0.333333" fill="black" stroke="black" stroke-width="0.333333"/>
<rect x="7.83317" y="17.1667" width="0.333333" height="0.333333" fill="black" stroke="black" stroke-width="0.333333"/>
<rect x="8.50016" y="17.1667" width="0.333333" height="0.333333" fill="black" stroke="black" stroke-width="0.333333"/>
<rect x="9.16667" y="17.1667" width="0.333333" height="0.333333" fill="black" stroke="black" stroke-width="0.333333"/>
<rect x="9.83317" y="17.1667" width="0.333333" height="0.333333" fill="black" stroke="black" stroke-width="0.333333"/>
<rect x="10.5002" y="17.1667" width="0.333333" height="0.333333" fill="black" stroke="black" stroke-width="0.333333"/>
<rect x="11.1667" y="17.1667" width="0.333333" height="0.333333" fill="black" stroke="black" stroke-width="0.333333"/>
<rect x="11.8332" y="17.1667" width="0.333333" height="0.333333" fill="black" stroke="black" stroke-width="0.333333"/>
<rect x="12.5002" y="17.1667" width="0.333333" height="0.333333" fill="black" stroke="black" stroke-width="0.333333"/>
<rect x="13.1667" y="17.1667" width="0.333333" height="0.333333" fill="black" stroke="black" stroke-width="0.333333"/>
<rect x="13.8332" y="17.1667" width="0.333333" height="0.333333" fill="black" stroke="black" stroke-width="0.333333"/>
<rect x="14.5002" y="17.1667" width="0.333333" height="0.333333" fill="black" stroke="black" stroke-width="0.333333"/>
<rect x="15.1667" y="17.1667" width="0.333333" height="0.333333" fill="black" stroke="black" stroke-width="0.333333"/>
<rect x="15.8332" y="17.1667" width="0.333333" height="0.333333" fill="black" stroke="black" stroke-width="0.333333"/>
<rect x="16.5002" y="17.1667" width="0.333333" height="0.333333" fill="black" stroke="black" stroke-width="0.333333"/>
<rect x="17.1667" y="17.1667" width="0.333333" height="0.333333" fill="black" stroke="black" stroke-width="0.333333"/>
<rect x="17.1667" y="16.5" width="0.333333" height="0.333333" fill="black" stroke="black" stroke-width="0.333333"/>
<rect x="17.1667" y="7.83329" width="0.333333" height="0.333333" fill="black" stroke="black" stroke-width="0.333333"/>
<rect x="17.1667" y="8.50004" width="0.333333" height="0.333333" fill="black" stroke="black" stroke-width="0.333333"/>
<rect x="17.1667" y="9.16667" width="0.333333" height="0.333333" fill="black" stroke="black" stroke-width="0.333333"/>
<rect x="17.1667" y="9.83329" width="0.333333" height="0.333333" fill="black" stroke="black" stroke-width="0.333333"/>
<rect x="17.1667" y="10.5" width="0.333333" height="0.333333" fill="black" stroke="black" stroke-width="0.333333"/>
<rect x="17.1667" y="11.1667" width="0.333333" height="0.333333" fill="black" stroke="black" stroke-width="0.333333"/>
<rect x="17.1667" y="11.8333" width="0.333333" height="0.333333" fill="black" stroke="black" stroke-width="0.333333"/>
<rect x="17.1667" y="12.5" width="0.333333" height="0.333333" fill="black" stroke="black" stroke-width="0.333333"/>
<rect x="17.1667" y="13.1667" width="0.333333" height="0.333333" fill="black" stroke="black" stroke-width="0.333333"/>
<rect x="17.1667" y="13.8333" width="0.333333" height="0.333333" fill="black" stroke="black" stroke-width="0.333333"/>
<rect x="17.1667" y="14.5" width="0.333333" height="0.333333" fill="black" stroke="black" stroke-width="0.333333"/>
<rect x="17.1667" y="15.1667" width="0.333333" height="0.333333" fill="black" stroke="black" stroke-width="0.333333"/>
<rect x="17.1667" y="15.8333" width="0.333333" height="0.333333" fill="black" stroke="black" stroke-width="0.333333"/>
<rect x="17.1667" y="7.16667" width="0.333333" height="0.333333" fill="black" stroke="black" stroke-width="0.333333"/>
<rect x="17.1667" y="6.50004" width="0.333333" height="0.333333" fill="black" stroke="black" stroke-width="0.333333"/>
<rect x="13.8332" y="3.83329" width="0.333333" height="0.333333" fill="black" stroke="black" stroke-width="0.333333"/>
<rect x="14.5002" y="4.50004" width="0.333333" height="0.333333" fill="black" stroke="black" stroke-width="0.333333"/>
<rect x="15.1667" y="5.16667" width="0.333333" height="0.333333" fill="black" stroke="black" stroke-width="0.333333"/>
<rect x="15.8332" y="5.83329" width="0.333333" height="0.333333" fill="black" stroke="black" stroke-width="0.333333"/>
<rect x="16.5002" y="6.50004" width="0.333333" height="0.333333" fill="black" stroke="black" stroke-width="0.333333"/>
<rect x="13.8332" y="3.16667" width="0.333333" height="0.333333" fill="black" stroke="black" stroke-width="0.333333"/>
<rect x="13.1667" y="3.16667" width="0.333333" height="0.333333" fill="black" stroke="black" stroke-width="0.333333"/>
<rect x="9.16667" y="3.16667" width="0.333333" height="0.333333" fill="black" stroke="black" stroke-width="0.333333"/>
<rect x="9.83317" y="3.16667" width="0.333333" height="0.333333" fill="black" stroke="black" stroke-width="0.333333"/>
<rect x="10.5002" y="3.16667" width="0.333333" height="0.333333" fill="black" stroke="black" stroke-width="0.333333"/>
<rect x="11.1667" y="3.16667" width="0.333333" height="0.333333" fill="black" stroke="black" stroke-width="0.333333"/>
<rect x="11.8332" y="3.16667" width="0.333333" height="0.333333" fill="black" stroke="black" stroke-width="0.333333"/>
<rect x="12.5002" y="3.16667" width="0.333333" height="0.333333" fill="black" stroke="black" stroke-width="0.333333"/>
<rect x="9.16667" y="1.16667" width="0.333333" height="0.333333" fill="black" stroke="black" stroke-width="0.333333"/>
<rect x="9.83317" y="1.16667" width="0.333333" height="0.333333" fill="black" stroke="black" stroke-width="0.333333"/>
<rect x="10.5002" y="1.16667" width="0.333333" height="0.333333" fill="black" stroke="black" stroke-width="0.333333"/>
<rect x="11.1667" y="1.16667" width="0.333333" height="0.333333" fill="black" stroke="black" stroke-width="0.333333"/>
<rect x="11.8332" y="1.16667" width="0.333333" height="0.333333" fill="black" stroke="black" stroke-width="0.333333"/>
<rect x="12.5002" y="1.16667" width="0.333333" height="0.333333" fill="black" stroke="black" stroke-width="0.333333"/>
<rect x="19.1667" y="7.83329" width="0.333333" height="0.333333" fill="black" stroke="black" stroke-width="0.333333"/>
<rect x="19.1667" y="8.50004" width="0.333333" height="0.333333" fill="black" stroke="black" stroke-width="0.333333"/>
<rect x="19.1667" y="9.16667" width="0.333333" height="0.333333" fill="black" stroke="black" stroke-width="0.333333"/>
<rect x="19.1667" y="9.83329" width="0.333333" height="0.333333" fill="black" stroke="black" stroke-width="0.333333"/>
<rect x="19.1667" y="10.5" width="0.333333" height="0.333333" fill="black" stroke="black" stroke-width="0.333333"/>
<rect x="19.1667" y="11.1667" width="0.333333" height="0.333333" fill="black" stroke="black" stroke-width="0.333333"/>
<rect x="19.1667" y="11.8333" width="0.333333" height="0.333333" fill="black" stroke="black" stroke-width="0.333333"/>
<rect x="19.1667" y="12.5" width="0.333333" height="0.333333" fill="black" stroke="black" stroke-width="0.333333"/>
<rect x="19.1667" y="13.1667" width="0.333333" height="0.333333" fill="black" stroke="black" stroke-width="0.333333"/>
<rect x="19.1667" y="13.8333" width="0.333333" height="0.333333" fill="black" stroke="black" stroke-width="0.333333"/>
<rect x="19.1667" y="14.5" width="0.333333" height="0.333333" fill="black" stroke="black" stroke-width="0.333333"/>
<rect x="19.1667" y="15.1667" width="0.333333" height="0.333333" fill="black" stroke="black" stroke-width="0.333333"/>
<rect x="19.1667" y="15.8333" width="0.333333" height="0.333333" fill="black" stroke="black" stroke-width="0.333333"/>
<path fill-rule="evenodd" clip-rule="evenodd" d="M4.3335 8.33337C4.06828 8.33337 3.81393 8.43873 3.62639 8.62627C3.43885 8.8138 3.3335 9.06816 3.3335 9.33337V20.3334C3.3335 20.5986 3.43885 20.8529 3.62639 21.0405C3.81393 21.228 4.06828 21.3334 4.3335 21.3334H12.3335C12.5987 21.3334 12.8531 21.228 13.0406 21.0405C13.2281 20.8529 13.3335 20.5986 13.3335 20.3334V18.3334C13.3335 17.7811 13.7812 17.3334 14.3335 17.3334C14.8858 17.3334 15.3335 17.7811 15.3335 18.3334V20.3334C15.3335 21.129 15.0174 21.8921 14.4548 22.4547C13.8922 23.0173 13.1291 23.3334 12.3335 23.3334H4.3335C3.53785 23.3334 2.77478 23.0173 2.21218 22.4547C1.64957 21.8921 1.3335 21.129 1.3335 20.3334V9.33337C1.3335 8.53772 1.64957 7.77466 2.21218 7.21205C2.77478 6.64944 3.53785 6.33337 4.3335 6.33337H6.3335C6.88578 6.33337 7.3335 6.78109 7.3335 7.33337C7.3335 7.88566 6.88578 8.33337 6.3335 8.33337H4.3335Z" fill="black" stroke="black" stroke-linecap="round" stroke-linejoin="round"/>
<rect x="3.83317" y="8.50004" width="0.333333" height="0.333333" fill="black" stroke="black" stroke-width="0.333333"/>
<rect x="3.16667" y="8.50004" width="0.333333" height="0.333333" fill="black" stroke="black" stroke-width="0.333333"/>
<rect x="4.50016" y="8.50004" width="0.333333" height="0.333333" fill="black" stroke="black" stroke-width="0.333333"/>
<rect x="3.16667" y="9.16667" width="0.333333" height="0.333333" fill="black" stroke="black" stroke-width="0.333333"/>
<rect x="3.16667" y="9.83341" width="0.333333" height="0.333333" fill="black" stroke="black" stroke-width="0.333333"/>
<rect x="3.16667" y="10.5" width="0.333333" height="0.333333" fill="black" stroke="black" stroke-width="0.333333"/>
<rect x="3.16667" y="11.1667" width="0.333333" height="0.333333" fill="black" stroke="black" stroke-width="0.333333"/>
<rect x="3.16667" y="11.8334" width="0.333333" height="0.333333" fill="black" stroke="black" stroke-width="0.333333"/>
<rect x="3.16667" y="12.5" width="0.333333" height="0.333333" fill="black" stroke="black" stroke-width="0.333333"/>
<rect x="3.16667" y="13.1667" width="0.333333" height="0.333333" fill="black" stroke="black" stroke-width="0.333333"/>
<rect x="3.16667" y="13.8334" width="0.333333" height="0.333333" fill="black" stroke="black" stroke-width="0.333333"/>
<rect x="3.16667" y="14.5" width="0.333333" height="0.333333" fill="black" stroke="black" stroke-width="0.333333"/>
<rect x="3.16667" y="15.1667" width="0.333333" height="0.333333" fill="black" stroke="black" stroke-width="0.333333"/>
<rect x="3.16667" y="15.8334" width="0.333333" height="0.333333" fill="black" stroke="black" stroke-width="0.333333"/>
<rect x="3.16667" y="16.5" width="0.333333" height="0.333333" fill="black" stroke="black" stroke-width="0.333333"/>
<rect x="3.16667" y="17.1667" width="0.333333" height="0.333333" fill="black" stroke="black" stroke-width="0.333333"/>
<rect x="3.16667" y="17.8334" width="0.333333" height="0.333333" fill="black" stroke="black" stroke-width="0.333333"/>
<rect x="3.16667" y="18.5" width="0.333333" height="0.333333" fill="black" stroke="black" stroke-width="0.333333"/>
<rect x="3.16667" y="19.1667" width="0.333333" height="0.333333" fill="black" stroke="black" stroke-width="0.333333"/>
<rect x="3.16667" y="19.8334" width="0.333333" height="0.333333" fill="black" stroke="black" stroke-width="0.333333"/>
<rect x="3.16667" y="20.5" width="0.333333" height="0.333333" fill="black" stroke="black" stroke-width="0.333333"/>
<rect x="3.16667" y="21.1667" width="0.333333" height="0.333333" fill="black" stroke="black" stroke-width="0.333333"/>
<rect x="3.83317" y="21.1667" width="0.333333" height="0.333333" fill="black" stroke="black" stroke-width="0.333333"/>
<rect x="4.50016" y="21.1667" width="0.333333" height="0.333333" fill="black" stroke="black" stroke-width="0.333333"/>
<rect x="5.16667" y="21.1667" width="0.333333" height="0.333333" fill="black" stroke="black" stroke-width="0.333333"/>
<rect x="5.83317" y="21.1667" width="0.333333" height="0.333333" fill="black" stroke="black" stroke-width="0.333333"/>
<rect x="6.50016" y="21.1667" width="0.333333" height="0.333333" fill="black" stroke="black" stroke-width="0.333333"/>
<rect x="7.16667" y="21.1667" width="0.333333" height="0.333333" fill="black" stroke="black" stroke-width="0.333333"/>
<rect x="7.83317" y="21.1667" width="0.333333" height="0.333333" fill="black" stroke="black" stroke-width="0.333333"/>
<rect x="8.50016" y="21.1667" width="0.333333" height="0.333333" fill="black" stroke="black" stroke-width="0.333333"/>
<rect x="9.16667" y="21.1667" width="0.333333" height="0.333333" fill="black" stroke="black" stroke-width="0.333333"/>
<rect x="9.83317" y="21.1667" width="0.333333" height="0.333333" fill="black" stroke="black" stroke-width="0.333333"/>
<rect x="10.5002" y="21.1667" width="0.333333" height="0.333333" fill="black" stroke="black" stroke-width="0.333333"/>
<rect x="11.1667" y="21.1667" width="0.333333" height="0.333333" fill="black" stroke="black" stroke-width="0.333333"/>
<rect x="11.8332" y="21.1667" width="0.333333" height="0.333333" fill="black" stroke="black" stroke-width="0.333333"/>
<rect x="12.5002" y="21.1667" width="0.333333" height="0.333333" fill="black" stroke="black" stroke-width="0.333333"/>
<rect x="13.1667" y="21.1667" width="0.333333" height="0.333333" fill="black" stroke="black" stroke-width="0.333333"/>
<rect x="13.1667" y="20.5" width="0.333333" height="0.333333" fill="black" stroke="black" stroke-width="0.333333"/>
<rect x="13.1667" y="18.5" width="0.333333" height="0.333333" fill="black" stroke="black" stroke-width="0.333333"/>
<rect x="13.1667" y="19.1667" width="0.333333" height="0.333333" fill="black" stroke="black" stroke-width="0.333333"/>
<rect x="13.1667" y="19.8334" width="0.333333" height="0.333333" fill="black" stroke="black" stroke-width="0.333333"/>
<rect x="13.8332" y="17.1667" width="0.333333" height="0.333333" fill="black" stroke="black" stroke-width="0.333333"/>
<rect x="13.1667" y="17.8334" width="0.333333" height="0.333333" fill="black" stroke="black" stroke-width="0.333333"/>
<rect x="14.5002" y="17.1667" width="0.333333" height="0.333333" fill="black" stroke="black" stroke-width="0.333333"/>
<rect x="15.1667" y="17.8334" width="0.333333" height="0.333333" fill="black" stroke="black" stroke-width="0.333333"/>
<rect x="15.1667" y="18.5" width="0.333333" height="0.333333" fill="black" stroke="black" stroke-width="0.333333"/>
<rect x="15.1667" y="19.1667" width="0.333333" height="0.333333" fill="black" stroke="black" stroke-width="0.333333"/>
<rect x="15.1667" y="19.8334" width="0.333333" height="0.333333" fill="black" stroke="black" stroke-width="0.333333"/>
<rect x="15.1667" y="20.5" width="0.333333" height="0.333333" fill="black" stroke="black" stroke-width="0.333333"/>
<rect x="15.1667" y="21.1667" width="0.333333" height="0.333333" fill="black" stroke="black" stroke-width="0.333333"/>
<rect x="14.5002" y="21.8334" width="0.333333" height="0.333333" fill="black" stroke="black" stroke-width="0.333333"/>
<rect x="14.5002" y="22.5" width="0.333333" height="0.333333" fill="black" stroke="black" stroke-width="0.333333"/>
<rect x="13.8332" y="22.5" width="0.333333" height="0.333333" fill="black" stroke="black" stroke-width="0.333333"/>
<rect x="12.5002" y="23.1667" width="0.333333" height="0.333333" fill="black" stroke="black" stroke-width="0.333333"/>
<rect x="13.1667" y="23.1667" width="0.333333" height="0.333333" fill="black" stroke="black" stroke-width="0.333333"/>
<rect x="4.50016" y="23.1667" width="0.333333" height="0.333333" fill="black" stroke="black" stroke-width="0.333333"/>
<rect x="5.16667" y="23.1667" width="0.333333" height="0.333333" fill="black" stroke="black" stroke-width="0.333333"/>
<rect x="5.83317" y="23.1667" width="0.333333" height="0.333333" fill="black" stroke="black" stroke-width="0.333333"/>
<rect x="6.50016" y="23.1667" width="0.333333" height="0.333333" fill="black" stroke="black" stroke-width="0.333333"/>
<rect x="7.16667" y="23.1667" width="0.333333" height="0.333333" fill="black" stroke="black" stroke-width="0.333333"/>
<rect x="7.83317" y="23.1667" width="0.333333" height="0.333333" fill="black" stroke="black" stroke-width="0.333333"/>
<rect x="8.50016" y="23.1667" width="0.333333" height="0.333333" fill="black" stroke="black" stroke-width="0.333333"/>
<rect x="9.16667" y="23.1667" width="0.333333" height="0.333333" fill="black" stroke="black" stroke-width="0.333333"/>
<rect x="9.83317" y="23.1667" width="0.333333" height="0.333333" fill="black" stroke="black" stroke-width="0.333333"/>
<rect x="10.5002" y="23.1667" width="0.333333" height="0.333333" fill="black" stroke="black" stroke-width="0.333333"/>
<rect x="11.1667" y="23.1667" width="0.333333" height="0.333333" fill="black" stroke="black" stroke-width="0.333333"/>
<rect x="11.8332" y="23.1667" width="0.333333" height="0.333333" fill="black" stroke="black" stroke-width="0.333333"/>
<rect x="2.50016" y="22.5" width="0.333333" height="0.333333" fill="black" stroke="black" stroke-width="0.333333"/>
<rect x="3.16667" y="23.1667" width="0.333333" height="0.333333" fill="black" stroke="black" stroke-width="0.333333"/>
<rect x="3.83317" y="23.1667" width="0.333333" height="0.333333" fill="black" stroke="black" stroke-width="0.333333"/>
<rect x="1.83317" y="22.5" width="0.333333" height="0.333333" fill="black" stroke="black" stroke-width="0.333333"/>
<rect x="1.16667" y="20.5" width="0.333333" height="0.333333" fill="black" stroke="black" stroke-width="0.333333"/>
<rect x="1.16667" y="21.1667" width="0.333333" height="0.333333" fill="black" stroke="black" stroke-width="0.333333"/>
<rect x="1.83317" y="21.8334" width="0.333333" height="0.333333" fill="black" stroke="black" stroke-width="0.333333"/>
<rect x="1.16667" y="9.16667" width="0.333333" height="0.333333" fill="black" stroke="black" stroke-width="0.333333"/>
<rect x="1.16667" y="9.83341" width="0.333333" height="0.333333" fill="black" stroke="black" stroke-width="0.333333"/>
<rect x="1.16667" y="10.5" width="0.333333" height="0.333333" fill="black" stroke="black" stroke-width="0.333333"/>
<rect x="1.16667" y="11.1667" width="0.333333" height="0.333333" fill="black" stroke="black" stroke-width="0.333333"/>
<rect x="1.16667" y="11.8334" width="0.333333" height="0.333333" fill="black" stroke="black" stroke-width="0.333333"/>
<rect x="1.16667" y="12.5" width="0.333333" height="0.333333" fill="black" stroke="black" stroke-width="0.333333"/>
<rect x="1.16667" y="13.1667" width="0.333333" height="0.333333" fill="black" stroke="black" stroke-width="0.333333"/>
<rect x="1.16667" y="13.8334" width="0.333333" height="0.333333" fill="black" stroke="black" stroke-width="0.333333"/>
<rect x="1.16667" y="14.5" width="0.333333" height="0.333333" fill="black" stroke="black" stroke-width="0.333333"/>
<rect x="1.16667" y="15.1667" width="0.333333" height="0.333333" fill="black" stroke="black" stroke-width="0.333333"/>
<rect x="1.16667" y="15.8334" width="0.333333" height="0.333333" fill="black" stroke="black" stroke-width="0.333333"/>
<rect x="1.16667" y="16.5" width="0.333333" height="0.333333" fill="black" stroke="black" stroke-width="0.333333"/>
<rect x="1.16667" y="17.1667" width="0.333333" height="0.333333" fill="black" stroke="black" stroke-width="0.333333"/>
<rect x="1.16667" y="17.8334" width="0.333333" height="0.333333" fill="black" stroke="black" stroke-width="0.333333"/>
<rect x="1.16667" y="18.5" width="0.333333" height="0.333333" fill="black" stroke="black" stroke-width="0.333333"/>
<rect x="1.16667" y="19.1667" width="0.333333" height="0.333333" fill="black" stroke="black" stroke-width="0.333333"/>
<rect x="1.16667" y="19.8334" width="0.333333" height="0.333333" fill="black" stroke="black" stroke-width="0.333333"/>
<rect x="1.83317" y="7.16667" width="0.333333" height="0.333333" fill="black" stroke="black" stroke-width="0.333333"/>
<rect x="1.16667" y="7.83341" width="0.333333" height="0.333333" fill="black" stroke="black" stroke-width="0.333333"/>
<rect x="1.16667" y="8.50004" width="0.333333" height="0.333333" fill="black" stroke="black" stroke-width="0.333333"/>
<rect x="2.50016" y="6.50004" width="0.333333" height="0.333333" fill="black" stroke="black" stroke-width="0.333333"/>
<rect x="3.16667" y="6.50004" width="0.333333" height="0.333333" fill="black" stroke="black" stroke-width="0.333333"/>
<rect x="3.83317" y="6.50004" width="0.333333" height="0.333333" fill="black" stroke="black" stroke-width="0.333333"/>
<rect x="4.50016" y="6.50004" width="0.333333" height="0.333333" fill="black" stroke="black" stroke-width="0.333333"/>
<rect x="5.16667" y="6.50004" width="0.333333" height="0.333333" fill="black" stroke="black" stroke-width="0.333333"/>
<rect x="5.83317" y="6.50004" width="0.333333" height="0.333333" fill="black" stroke="black" stroke-width="0.333333"/>
<rect x="6.50016" y="6.50004" width="0.333333" height="0.333333" fill="black" stroke="black" stroke-width="0.333333"/>
<rect x="7.16667" y="6.50004" width="0.333333" height="0.333333" fill="black" stroke="black" stroke-width="0.333333"/>
<rect x="7.16667" y="7.16667" width="0.333333" height="0.333333" fill="black" stroke="black" stroke-width="0.333333"/>
<rect x="7.16667" y="7.83341" width="0.333333" height="0.333333" fill="black" stroke="black" stroke-width="0.333333"/>
<rect x="6.50016" y="7.83341" width="0.333333" height="0.333333" fill="black" stroke="black" stroke-width="0.333333"/>
<rect x="6.50016" y="8.50004" width="0.333333" height="0.333333" fill="black" stroke="black" stroke-width="0.333333"/>
<rect x="5.16667" y="8.50004" width="0.333333" height="0.333333" fill="black" stroke="black" stroke-width="0.333333"/>
<rect x="5.83317" y="8.50004" width="0.333333" height="0.333333" fill="black" stroke="black" stroke-width="0.333333"/>
</svg>
