<svg xmlns="http://www.w3.org/2000/svg" width="40" height="40" viewBox="0 0 40 40" fill="none">
  <g clip-path="url(#clip0_3715_4554)">
    <path d="M32.7273 0H7.27273C3.24324 0 0 3.3 0 7.3V32.7C0 36.7 3.24324 40 7.27273 40H32.7273C36.7568 40 40 36.7 40 32.7V7.3C40 3.3 36.7568 0 32.7273 0ZM26.5356 10C29.484 10 31.941 12.4 31.941 15.4C31.941 16.3 31.7445 17.2 31.3514 18C30.6634 17.5 29.8771 17 29.0909 16.7C29.2875 16.3 29.3857 15.8 29.3857 15.4C29.3857 13.9 28.1081 12.6 26.6339 12.6C25.0614 12.6 23.8821 13.9 23.8821 15.4C23.8821 15.9 23.9803 16.3 24.1769 16.7C23.3907 17 22.6044 17.4 21.9165 18C21.4251 17.2 21.3268 16.3 21.3268 15.4C21.2285 12.4 23.5872 10 26.5356 10ZM13.4644 30C10.516 30 8.05897 27.6 8.05897 24.6H10.6143C10.6143 26.1 11.8919 27.4 13.3661 27.4C14.8403 27.4 16.1179 26.1 16.1179 24.6H18.6732C18.8698 27.6 16.4128 30 13.4644 30ZM13.4644 22.5C10.0246 22.5 7.27273 19.7 7.27273 16.3C7.27273 12.9 10.0246 10 13.4644 10C16.9042 10 19.7543 12.8 19.7543 16.3C19.7543 19.7 16.9042 22.5 13.4644 22.5ZM26.5356 30C23.0958 30 20.2457 27.2 20.2457 23.8C20.2457 20.3 22.9975 17.5 26.5356 17.5C29.9754 17.5 32.7273 20.3 32.7273 23.8C32.8256 27.2 29.9754 30 26.5356 30ZM30.2703 23.7C30.2703 25.8 28.5995 27.4 26.5356 27.4C24.4717 27.4 22.801 25.7 22.801 23.7C22.801 21.6 24.4717 20 26.5356 20C28.5995 20.1 30.2703 21.7 30.2703 23.7ZM17.1007 16.3C17.1007 18.4 15.43 20 13.3661 20C11.3022 20 9.63145 18.3 9.63145 16.3C9.63145 14.2 11.3022 12.6 13.3661 12.6C15.5283 12.6 17.1007 14.2 17.1007 16.3Z" fill="#D9B432"/>
  </g>
  <defs>
    <clipPath id="clip0_3715_4554">
      <rect width="40" height="40" fill="white"/>
    </clipPath>
  </defs>
</svg>