<svg xmlns="http://www.w3.org/2000/svg" width="34" height="31" viewBox="0 0 34 31" fill="none">
<g id="Meta">
<path id="Vector" d="M31.4131 0.457031L18.9209 9.73512L21.231 4.26117L31.4131 0.457031Z" fill="#E2761B" stroke="#E2761B" stroke-width="0.0753296" stroke-linecap="round" stroke-linejoin="round"/>
<g id="Group">
<path id="Vector_2" d="M2.57422 0.457031L14.9659 9.82301L12.7688 4.26117L2.57422 0.457031Z" fill="#232631" stroke="#E4761B" stroke-width="0.0753296" stroke-linecap="round" stroke-linejoin="round"/>
<path id="Vector_3" d="M26.9179 21.9639L23.5908 27.0612L30.7095 29.0197L32.7559 22.0769L26.9179 21.9639Z" fill="#232631" stroke="#E4761B" stroke-width="0.0753296" stroke-linecap="round" stroke-linejoin="round"/>
<path id="Vector_4" d="M1.25586 22.0769L3.28976 29.0197L10.4084 27.0612L7.08135 21.9639L1.25586 22.0769Z" fill="#E4761B" stroke="#E4761B" stroke-width="0.0753296" stroke-linecap="round" stroke-linejoin="round"/>
<path id="Vector_5" d="M10.0066 13.3515L8.02295 16.3522L15.0914 16.666L14.8403 9.07031L10.0066 13.3515Z" fill="#E4761B" stroke="#E4761B" stroke-width="0.0753296" stroke-linecap="round" stroke-linejoin="round"/>
<path id="Vector_6" d="M23.98 13.3506L19.0836 8.98145L18.9204 16.6651L25.9763 16.3512L23.98 13.3506Z" fill="#E4761B" stroke="#E4761B" stroke-width="0.0753296" stroke-linecap="round" stroke-linejoin="round"/>
<path id="Vector_7" d="M10.4082 27.061L14.6518 24.9895L10.9857 22.127L10.4082 27.061Z" fill="#E4761B" stroke="#E4761B" stroke-width="0.0753296" stroke-linecap="round" stroke-linejoin="round"/>
<path id="Vector_8" d="M19.335 24.9895L23.5911 27.061L23.001 22.127L19.335 24.9895Z" fill="#E4761B" stroke="#E4761B" stroke-width="0.0753296" stroke-linecap="round" stroke-linejoin="round"/>
</g>
<g id="Group_2">
<path id="Vector_9" d="M23.5911 27.0608L19.335 24.9893L19.6739 27.7639L19.6363 28.9315L23.5911 27.0608Z" fill="#D7C1B3" stroke="#D7C1B3" stroke-width="0.0753296" stroke-linecap="round" stroke-linejoin="round"/>
<path id="Vector_10" d="M10.4082 27.0608L14.363 28.9315L14.3379 27.7639L14.6518 24.9893L10.4082 27.0608Z" fill="#D7C1B3" stroke="#D7C1B3" stroke-width="0.0753296" stroke-linecap="round" stroke-linejoin="round"/>
</g>
<path id="Vector_11" d="M14.4262 20.2939L10.8857 19.2519L13.3842 18.1094L14.4262 20.2939Z" fill="#233447" stroke="#233447" stroke-width="0.0753296" stroke-linecap="round" stroke-linejoin="round"/>
<path id="Vector_12" d="M19.561 20.2939L20.6031 18.1094L23.1141 19.2519L19.561 20.2939Z" fill="#233447" stroke="#233447" stroke-width="0.0753296" stroke-linecap="round" stroke-linejoin="round"/>
<g id="Group_3">
<path id="Vector_13" d="M10.4081 27.0612L11.0107 21.9639L7.08105 22.0769L10.4081 27.0612Z" fill="#CD6116" stroke="#CD6116" stroke-width="0.0753296" stroke-linecap="round" stroke-linejoin="round"/>
<path id="Vector_14" d="M22.9878 21.9639L23.5904 27.0612L26.9175 22.0769L22.9878 21.9639Z" fill="#CD6116" stroke="#CD6116" stroke-width="0.0753296" stroke-linecap="round" stroke-linejoin="round"/>
<path id="Vector_15" d="M25.9763 16.3516L18.9204 16.6654L19.5733 20.2938L20.6153 18.1093L23.1263 19.2517L25.9763 16.3516Z" fill="#CD6116" stroke="#CD6116" stroke-width="0.0753296" stroke-linecap="round" stroke-linejoin="round"/>
<path id="Vector_16" d="M10.885 19.2517L13.396 18.1093L14.4255 20.2938L15.0909 16.6654L8.02246 16.3516L10.885 19.2517Z" fill="#CD6116" stroke="#CD6116" stroke-width="0.0753296" stroke-linecap="round" stroke-linejoin="round"/>
</g>
<g id="Group_4">
<path id="Vector_17" d="M8.02295 16.3516L10.9859 22.1268L10.8855 19.2517L8.02295 16.3516Z" fill="#E4751F" stroke="#E4751F" stroke-width="0.0753296" stroke-linecap="round" stroke-linejoin="round"/>
<path id="Vector_18" d="M23.1265 19.2517L23.001 22.1268L25.9765 16.3516L23.1265 19.2517Z" fill="#E4751F" stroke="#E4751F" stroke-width="0.0753296" stroke-linecap="round" stroke-linejoin="round"/>
<path id="Vector_19" d="M15.0912 16.6655L14.4258 20.2939L15.2544 24.5751L15.4427 18.938L15.0912 16.6655Z" fill="#E4751F" stroke="#E4751F" stroke-width="0.0753296" stroke-linecap="round" stroke-linejoin="round"/>
<path id="Vector_20" d="M18.9205 16.6655L18.5815 18.9254L18.7322 24.5751L19.5734 20.2939L18.9205 16.6655Z" fill="#E4751F" stroke="#E4751F" stroke-width="0.0753296" stroke-linecap="round" stroke-linejoin="round"/>
</g>
<path id="Vector_21" d="M19.5736 20.294L18.7324 24.5752L19.3351 24.9896L23.0011 22.127L23.1266 19.252L19.5736 20.294Z" fill="#F6851B" stroke="#F6851B" stroke-width="0.0753296" stroke-linecap="round" stroke-linejoin="round"/>
<path id="Vector_22" d="M10.8857 19.252L10.9862 22.127L14.6522 24.9896L15.2549 24.5752L14.4262 20.294L10.8857 19.252Z" fill="#F6851B" stroke="#F6851B" stroke-width="0.0753296" stroke-linecap="round" stroke-linejoin="round"/>
<path id="Vector_23" d="M19.6361 28.9312L19.6737 27.7636L19.3599 27.4874H14.6267L14.3379 27.7636L14.363 28.9312L10.4082 27.0605L11.7892 28.1905L14.589 30.1365H19.3975L22.2098 28.1905L23.5909 27.0605L19.6361 28.9312Z" fill="#C0AD9E" stroke="#C0AD9E" stroke-width="0.0753296" stroke-linecap="round" stroke-linejoin="round"/>
<path id="Vector_24" d="M19.3348 24.989L18.7321 24.5747H15.2544L14.6518 24.989L14.3379 27.7637L14.6267 27.4875H19.3599L19.6737 27.7637L19.3348 24.989Z" fill="#161616" stroke="#161616" stroke-width="0.0753296" stroke-linecap="round" stroke-linejoin="round"/>
<g id="Group_5">
<path id="Vector_25" d="M31.9401 10.3378L33.0073 5.21535L31.4128 0.457031L19.335 9.42125L23.9803 13.3509L30.5465 15.2718L32.0029 13.5769L31.3751 13.125L32.3795 12.2084L31.6011 11.6058L32.6055 10.84L31.9401 10.3378Z" fill="#763D16" stroke="#763D16" stroke-width="0.0753296" stroke-linecap="round" stroke-linejoin="round"/>
<path id="Vector_26" d="M0.992188 5.21535L2.05936 10.3378L1.38139 10.84L2.38578 11.6058L1.61993 12.2084L2.62433 13.125L1.99658 13.5769L3.4404 15.2718L10.0066 13.3509L14.6519 9.42125L2.57411 0.457031L0.992188 5.21535Z" fill="#763D16" stroke="#763D16" stroke-width="0.0753296" stroke-linecap="round" stroke-linejoin="round"/>
</g>
<path id="Vector_27" d="M30.5465 15.2715L23.9803 13.3506L25.9765 16.3512L23.001 22.1265L26.9181 22.0763H32.7562L30.5465 15.2715Z" fill="#F6851B" stroke="#F6851B" stroke-width="0.0753296" stroke-linecap="round" stroke-linejoin="round"/>
<path id="Vector_28" d="M10.0066 13.3506L3.44042 15.2715L1.25586 22.0763H7.08135L10.9859 22.1265L8.02297 16.3512L10.0066 13.3506Z" fill="#F6851B" stroke="#F6851B" stroke-width="0.0753296" stroke-linecap="round" stroke-linejoin="round"/>
<path id="Vector_29" d="M18.9205 16.666L19.3348 9.42179L21.2431 4.26172H12.7686L14.6518 9.42179L15.0912 16.666L15.2419 18.951L15.2544 24.5756H18.7321L18.7573 18.951L18.9205 16.666Z" fill="#F6851B" stroke="#F6851B" stroke-width="0.0753296" stroke-linecap="round" stroke-linejoin="round"/>
</g>
</svg>