<svg width="177" height="16" viewBox="0 0 177 16" fill="none" xmlns="http://www.w3.org/2000/svg">
<path d="M7.87598 7.83707H11.8139V11.8371H7.87598V7.83707Z" fill="white"/>
<path d="M3.93799 11.8371H7.87598L7.87594 15.8371H3.93799V11.8371Z" fill="white"/>
<path d="M0 11.8371H3.93799V15.8371H0V11.8371Z" fill="white"/>
<path d="M11.8139 7.83707H15.7519V11.8371H11.8139V7.83707Z" fill="white"/>
<path d="M15.752 3.83707H19.6899V7.83707H15.7519L15.752 3.83707Z" fill="white"/>
<path d="M19.6899 3.83707H23.6279V7.83707H19.6899V3.83707Z" fill="white"/>
<path d="M23.6279 4.83707H27.5659V8.83707H23.6279V4.83707Z" fill="white"/>
<path d="M27.5654 7.83707H31.5034V11.8371H27.5654V7.83707Z" fill="white"/>
<path d="M31.5039 5.83707H35.4419V9.83707H31.5039V5.83707Z" fill="white"/>
<path d="M35.4414 3.83707H39.3794V7.83707H35.4414V3.83707Z" fill="white"/>
<path d="M39.3794 6.83707H43.3173V10.8371H39.3794V6.83707Z" fill="white"/>
<path d="M43.3174 4.83707H47.2553V8.83707H43.3174V4.83707Z" fill="white"/>
<path d="M47.2554 1.83707H51.1933V5.83707H47.2554V1.83707Z" fill="white"/>
<path d="M51.1934 3.83707H55.1313V7.83707H51.1934V3.83707Z" fill="white"/>
<path d="M55.1313 3.83707H59.0693V7.83707H55.1313V3.83707Z" fill="white"/>
<path d="M59.0693 3.83707H63.0073V7.83707H59.0693V3.83707Z" fill="white"/>
<path d="M63.0073 3.83707H66.9453V7.83707H63.0073V3.83707Z" fill="white"/>
<path d="M66.9453 3.83707H70.8833V7.83707H66.9453V3.83707Z" fill="white"/>
<path d="M70.8833 3.83707H74.8213V7.83707H70.8833V3.83707Z" fill="white"/>
<path d="M74.8213 7.83707H78.7588V11.8371H74.8208L74.8213 7.83707Z" fill="white"/>
<path d="M78.7593 3.83707H82.6972V7.83707H78.7588L78.7593 3.83707Z" fill="white"/>
<path d="M82.6972 3.83707H86.6347V7.83707H82.6972V3.83707Z" fill="white"/>
<path d="M86.6347 3.83707H90.5727V7.83707H86.6347V3.83707Z" fill="white"/>
<path d="M89.562 3.83707H93.5V7.83707H89.562V3.83707Z" fill="white"/>
<path d="M93.5 3.83707H97.438V7.83707H93.5V3.83707Z" fill="white"/>
<path d="M97.438 3.83707H101.376V7.83707H97.438V3.83707Z" fill="white"/>
<path d="M101.376 3.83707H105.314V7.83707H101.376V3.83707Z" fill="white"/>
<path d="M105.314 3.83707H109.252V7.83707H105.314V3.83707Z" fill="white"/>
<path d="M109.252 2.83707H113.19V6.83707H109.252V2.83707Z" fill="white"/>
<path d="M113.19 3.83707H117.128V7.83707H113.19V3.83707Z" fill="white"/>
<path d="M117.128 3.83707H121.066V7.83707H117.128V3.83707Z" fill="white"/>
<path d="M121.065 4.83707H125.003V8.83707H121.065V4.83707Z" fill="white"/>
<path d="M125.004 3.83707H128.942V7.83707H125.004V3.83707Z" fill="white"/>
<path d="M128.942 3.83707H132.879V7.83707H128.942V3.83707Z" fill="white"/>
<path d="M132.879 3.83707H136.817V7.83707H132.879V3.83707Z" fill="white"/>
<path d="M136.817 3.83707H140.755V7.83707H136.817V3.83707Z" fill="white"/>
<path d="M140.755 1.83707H144.693V5.83707H140.755V1.83707Z" fill="white"/>
<path d="M144.693 4.83707H148.631V8.83707H144.693V4.83707Z" fill="white"/>
<path d="M148.631 5.83707H152.569V9.83707H148.631V5.83707Z" fill="white"/>
<path d="M152.569 1.83707H156.507V5.83707H152.569L152.569 1.83707Z" fill="white"/>
<path d="M156.507 0.837067H160.445V4.83707H156.507V0.837067Z" fill="white"/>
<path d="M160.445 1.83707H164.383V5.83707H160.445V1.83707Z" fill="white"/>
<path d="M164.383 3.83707H168.321V7.83707H164.383V3.83707Z" fill="white"/>
<path d="M168.321 3.83707H172.259V7.83707H168.321V3.83707Z" fill="white"/>
<path d="M172.259 3.83707H176.197V7.83707H172.259V3.83707Z" fill="white"/>
</svg>
