<svg width="154" height="12" viewBox="0 0 154 12" fill="none" xmlns="http://www.w3.org/2000/svg">
<path d="M0.683594 1.83707H4.62154V5.83707H0.683594V1.83707Z" fill="white"/>
<path d="M4.62154 1.83707L10.3173 2.83707V6.83707L4.62154 5.83707V1.83707Z" fill="white"/>
<path d="M10.3173 2.83707H14.2553V6.83707H10.3173V2.83707Z" fill="white"/>
<path d="M14.2553 2.83707H18.1933V6.83707H14.2553V2.83707Z" fill="white"/>
<path d="M18.1933 2.83707H22.1313V6.83707H18.1933V2.83707Z" fill="white"/>
<path d="M22.1313 2.83707H26.0693V6.83707H22.1313V2.83707Z" fill="white"/>
<path d="M26.0693 3.83707H30.0073V7.83707H26.0693V3.83707Z" fill="white"/>
<path d="M30.0073 2.83707H33.9453V6.83707H30.0073V2.83707Z" fill="white"/>
<path d="M33.9448 0.837067H37.8828V4.83707H33.9448V0.837067Z" fill="white"/>
<path d="M37.8833 2.83707H41.8212V6.83707H37.8833V2.83707Z" fill="white"/>
<path d="M41.8213 4.83707H45.7592V8.83707H41.8213V4.83707Z" fill="white"/>
<path d="M60.5 2.83707H64.4379V6.83707H60.5V2.83707Z" fill="white"/>
<path d="M45.7588 3.83707H49.6967V7.83707H45.7588V3.83707Z" fill="white"/>
<path d="M49.6968 2.83707H53.6347V6.83707H49.6968V2.83707Z" fill="white"/>
<path d="M52.624 2.83707H56.562V6.83707H52.624V2.83707Z" fill="white"/>
<path d="M56.562 2.83707H60.5V6.83707H56.562V2.83707Z" fill="white"/>
<path d="M64.4379 2.83707H68.3759V6.83707H64.4379V2.83707Z" fill="white"/>
<path d="M68.376 1.83707H72.3139V5.83707H68.376V1.83707Z" fill="white"/>
<path d="M72.314 2.83707H76.2519V6.83707H72.314V2.83707Z" fill="white"/>
<path d="M76.2519 2.83707H80.1899V6.83707H76.2519V2.83707Z" fill="white"/>
<path d="M80.1894 3.83707H84.1274V7.83707H80.1894V3.83707Z" fill="white"/>
<path d="M84.1279 2.83707H88.0659V6.83707H84.1279V2.83707Z" fill="white"/>
<path d="M88.0659 2.83707H92.0039V6.83707H88.0659V2.83707Z" fill="white"/>
<path d="M92.0039 2.83707H95.9414V6.83707H92.0039V2.83707Z" fill="white"/>
<path d="M95.9414 2.83707H99.8793V6.83707H95.9414V2.83707Z" fill="white"/>
<path d="M99.8793 2.83707H103.818V6.83707H99.8793V2.83707Z" fill="white"/>
<path d="M103.818 2.83707H107.755V6.83707H103.818V2.83707Z" fill="white"/>
<path d="M107.755 2.83707H111.693V6.83707H107.755V2.83707Z" fill="white"/>
<path d="M111.693 1.83707H115.631V5.83707H111.693V1.83707Z" fill="white"/>
<path d="M115.631 7.83707H119.569V11.8371H115.631V7.83707Z" fill="white"/>
<path d="M119.569 6.83707H123.507V10.8371H119.569V6.83707Z" fill="white"/>
<path d="M123.507 4.83707H127.445V8.83707H123.507V4.83707Z" fill="white"/>
<path d="M127.445 2.83707H131.383V6.83707H127.445V2.83707Z" fill="white"/>
<path d="M131.383 0.837067H135.321V4.83707H131.383V0.837067Z" fill="white"/>
<path d="M135.321 1.83707H139.259V5.83707H135.321V1.83707Z" fill="white"/>
<path d="M139.259 0.837067H143.197V4.83707H139.259V0.837067Z" fill="white"/>
<path d="M142.186 2.83707H146.124V6.83707H142.186V2.83707Z" fill="white"/>
<path d="M146.124 2.83707H150.062V6.83707H146.124V2.83707Z" fill="white"/>
<path d="M150.062 2.83707H154V6.83707H150.062V2.83707Z" fill="white"/>
</svg>
